<?xml version="1.0" encoding="UTF-8" standalone="no"?>
<!DOCTYPE svg PUBLIC "-//W3C//DTD SVG 1.1//EN"
 "http://www.w3.org/Graphics/SVG/1.1/DTD/svg11.dtd">
<!-- Generated by graphviz version 8.1.0 (20230707.0739)
 -->
<!-- Pages: 1 -->
<svg width="564pt" height="801pt"
 viewBox="0.00 0.00 563.75 801.25" xmlns="http://www.w3.org/2000/svg" xmlns:xlink="http://www.w3.org/1999/xlink">
<g id="graph0" class="graph" transform="scale(1 1) rotate(0) translate(4 797.25)">
<polygon fill="white" stroke="none" points="-4,4 -4,-797.25 559.75,-797.25 559.75,4 -4,4"/>
<!-- 1508082346576 -->
<g id="node1" class="node">
<title>1508082346576</title>
<polygon fill="none" stroke="black" points="274,-0.5 274,-71.75 432.5,-71.75 432.5,-0.5 274,-0.5"/>
<text text-anchor="middle" x="353.25" y="-54.45" font-family="Times New Roman,serif" font-size="14.00">b+w0*x0+w1*x1+w2*x2</text>
<polyline fill="none" stroke="black" points="274,-48 432.5,-48"/>
<text text-anchor="middle" x="353.25" y="-30.7" font-family="Times New Roman,serif" font-size="14.00">data &#45;9.8518</text>
<polyline fill="none" stroke="black" points="274,-24.25 432.5,-24.25"/>
<text text-anchor="middle" x="353.25" y="-6.95" font-family="Times New Roman,serif" font-size="14.00">grad 1.0000</text>
</g>
<!-- 1508082346576+ -->
<g id="node2" class="node">
<title>1508082346576+</title>
<ellipse fill="none" stroke="black" cx="353.25" cy="-126.25" rx="27" ry="18"/>
<text text-anchor="middle" x="353.25" y="-120.83" font-family="Times New Roman,serif" font-size="14.00">+</text>
</g>
<!-- 1508082346576+&#45;&gt;1508082346576 -->
<g id="edge1" class="edge">
<title>1508082346576+&#45;&gt;1508082346576</title>
<path fill="none" stroke="black" d="M353.25,-107.84C353.25,-100.49 353.25,-91.56 353.25,-82.56"/>
<polygon fill="black" stroke="black" points="356.75,-82.64 353.25,-72.64 349.75,-82.64 356.75,-82.64"/>
</g>
<!-- 1508082346384 -->
<g id="node3" class="node">
<title>1508082346384</title>
<polygon fill="none" stroke="black" points="238.5,-180.75 238.5,-252 352,-252 352,-180.75 238.5,-180.75"/>
<text text-anchor="middle" x="295.25" y="-234.7" font-family="Times New Roman,serif" font-size="14.00">b+w0*x0+w1*x1</text>
<polyline fill="none" stroke="black" points="238.5,-228.25 352,-228.25"/>
<text text-anchor="middle" x="295.25" y="-210.95" font-family="Times New Roman,serif" font-size="14.00">data &#45;6.6800</text>
<polyline fill="none" stroke="black" points="238.5,-204.5 352,-204.5"/>
<text text-anchor="middle" x="295.25" y="-187.2" font-family="Times New Roman,serif" font-size="14.00">grad 1.0000</text>
</g>
<!-- 1508082346384&#45;&gt;1508082346576+ -->
<g id="edge3" class="edge">
<title>1508082346384&#45;&gt;1508082346576+</title>
<path fill="none" stroke="black" d="M318.01,-180.8C324.35,-171.17 331.1,-160.9 336.99,-151.96"/>
<polygon fill="black" stroke="black" points="340.39,-154.15 342.97,-143.87 334.55,-150.3 340.39,-154.15"/>
</g>
<!-- 1508082346384+ -->
<g id="node4" class="node">
<title>1508082346384+</title>
<ellipse fill="none" stroke="black" cx="295.25" cy="-306.5" rx="27" ry="18"/>
<text text-anchor="middle" x="295.25" y="-301.07" font-family="Times New Roman,serif" font-size="14.00">+</text>
</g>
<!-- 1508082346384+&#45;&gt;1508082346384 -->
<g id="edge2" class="edge">
<title>1508082346384+&#45;&gt;1508082346384</title>
<path fill="none" stroke="black" d="M295.25,-288.09C295.25,-280.74 295.25,-271.81 295.25,-262.81"/>
<polygon fill="black" stroke="black" points="298.75,-262.89 295.25,-252.89 291.75,-262.89 298.75,-262.89"/>
</g>
<!-- 1508082346000 -->
<g id="node5" class="node">
<title>1508082346000</title>
<polygon fill="none" stroke="black" points="153.75,-361 153.75,-432.25 238.75,-432.25 238.75,-361 153.75,-361"/>
<text text-anchor="middle" x="196.25" y="-414.95" font-family="Times New Roman,serif" font-size="14.00">b+w0*x0</text>
<polyline fill="none" stroke="black" points="153.75,-408.5 238.75,-408.5"/>
<text text-anchor="middle" x="196.25" y="-391.2" font-family="Times New Roman,serif" font-size="14.00">data &#45;1.6248</text>
<polyline fill="none" stroke="black" points="153.75,-384.75 238.75,-384.75"/>
<text text-anchor="middle" x="196.25" y="-367.45" font-family="Times New Roman,serif" font-size="14.00">grad 1.0000</text>
</g>
<!-- 1508082346000&#45;&gt;1508082346384+ -->
<g id="edge5" class="edge">
<title>1508082346000&#45;&gt;1508082346384+</title>
<path fill="none" stroke="black" d="M235.09,-361.05C247.32,-350.17 260.45,-338.47 271.32,-328.8"/>
<polygon fill="black" stroke="black" points="273.35,-331.79 278.49,-322.53 268.69,-326.56 273.35,-331.79"/>
</g>
<!-- 1508082346000+ -->
<g id="node6" class="node">
<title>1508082346000+</title>
<ellipse fill="none" stroke="black" cx="196.25" cy="-486.75" rx="27" ry="18"/>
<text text-anchor="middle" x="196.25" y="-481.32" font-family="Times New Roman,serif" font-size="14.00">+</text>
</g>
<!-- 1508082346000+&#45;&gt;1508082346000 -->
<g id="edge4" class="edge">
<title>1508082346000+&#45;&gt;1508082346000</title>
<path fill="none" stroke="black" d="M196.25,-468.34C196.25,-460.99 196.25,-452.06 196.25,-443.06"/>
<polygon fill="black" stroke="black" points="199.75,-443.14 196.25,-433.14 192.75,-443.14 199.75,-443.14"/>
</g>
<!-- 1508082345680 -->
<g id="node7" class="node">
<title>1508082345680</title>
<polygon fill="none" stroke="black" points="52.75,-541.25 52.75,-612.5 137.75,-612.5 137.75,-541.25 52.75,-541.25"/>
<text text-anchor="middle" x="95.25" y="-595.2" font-family="Times New Roman,serif" font-size="14.00">w0*x0</text>
<polyline fill="none" stroke="black" points="52.75,-588.75 137.75,-588.75"/>
<text text-anchor="middle" x="95.25" y="-571.45" font-family="Times New Roman,serif" font-size="14.00">data &#45;1.6248</text>
<polyline fill="none" stroke="black" points="52.75,-565 137.75,-565"/>
<text text-anchor="middle" x="95.25" y="-547.7" font-family="Times New Roman,serif" font-size="14.00">grad 1.0000</text>
</g>
<!-- 1508082345680&#45;&gt;1508082346000+ -->
<g id="edge7" class="edge">
<title>1508082345680&#45;&gt;1508082346000+</title>
<path fill="none" stroke="black" d="M134.88,-541.3C147.56,-530.23 161.21,-518.33 172.4,-508.56"/>
<polygon fill="black" stroke="black" points="174.19,-510.77 179.43,-501.56 169.59,-505.49 174.19,-510.77"/>
</g>
<!-- 1508082345680* -->
<g id="node8" class="node">
<title>1508082345680*</title>
<ellipse fill="none" stroke="black" cx="95.25" cy="-667" rx="27" ry="18"/>
<text text-anchor="middle" x="95.25" y="-661.58" font-family="Times New Roman,serif" font-size="14.00">*</text>
</g>
<!-- 1508082345680*&#45;&gt;1508082345680 -->
<g id="edge6" class="edge">
<title>1508082345680*&#45;&gt;1508082345680</title>
<path fill="none" stroke="black" d="M95.25,-648.59C95.25,-641.24 95.25,-632.31 95.25,-623.31"/>
<polygon fill="black" stroke="black" points="98.75,-623.39 95.25,-613.39 91.75,-623.39 98.75,-623.39"/>
</g>
<!-- 1508078608208 -->
<g id="node9" class="node">
<title>1508078608208</title>
<polygon fill="none" stroke="black" points="0,-721.5 0,-792.75 86.5,-792.75 86.5,-721.5 0,-721.5"/>
<text text-anchor="middle" x="43.25" y="-775.45" font-family="Times New Roman,serif" font-size="14.00">x0</text>
<polyline fill="none" stroke="black" points="0,-769 86.5,-769"/>
<text text-anchor="middle" x="43.25" y="-751.7" font-family="Times New Roman,serif" font-size="14.00">data 3.0000</text>
<polyline fill="none" stroke="black" points="0,-745.25 86.5,-745.25"/>
<text text-anchor="middle" x="43.25" y="-727.95" font-family="Times New Roman,serif" font-size="14.00">grad &#45;0.5416</text>
</g>
<!-- 1508078608208&#45;&gt;1508082345680* -->
<g id="edge8" class="edge">
<title>1508078608208&#45;&gt;1508082345680*</title>
<path fill="none" stroke="black" d="M63.65,-721.55C69.19,-712.16 75.09,-702.17 80.27,-693.39"/>
<polygon fill="black" stroke="black" points="83.69,-695.48 85.76,-685.09 77.66,-691.92 83.69,-695.48"/>
</g>
<!-- 1509662815312 -->
<g id="node10" class="node">
<title>1509662815312</title>
<polygon fill="none" stroke="black" points="104.75,-721.5 104.75,-792.75 189.75,-792.75 189.75,-721.5 104.75,-721.5"/>
<text text-anchor="middle" x="147.25" y="-775.45" font-family="Times New Roman,serif" font-size="14.00">w0</text>
<polyline fill="none" stroke="black" points="104.75,-769 189.75,-769"/>
<text text-anchor="middle" x="147.25" y="-751.7" font-family="Times New Roman,serif" font-size="14.00">data &#45;0.5416</text>
<polyline fill="none" stroke="black" points="104.75,-745.25 189.75,-745.25"/>
<text text-anchor="middle" x="147.25" y="-727.95" font-family="Times New Roman,serif" font-size="14.00">grad 3.0000</text>
</g>
<!-- 1509662815312&#45;&gt;1508082345680* -->
<g id="edge9" class="edge">
<title>1509662815312&#45;&gt;1508082345680*</title>
<path fill="none" stroke="black" d="M126.85,-721.55C121.31,-712.16 115.41,-702.17 110.23,-693.39"/>
<polygon fill="black" stroke="black" points="112.84,-691.92 104.74,-685.09 106.81,-695.48 112.84,-691.92"/>
</g>
<!-- 1508074391120 -->
<g id="node11" class="node">
<title>1508074391120</title>
<polygon fill="none" stroke="black" points="156.25,-541.25 156.25,-612.5 238.25,-612.5 238.25,-541.25 156.25,-541.25"/>
<text text-anchor="middle" x="197.25" y="-595.2" font-family="Times New Roman,serif" font-size="14.00">b</text>
<polyline fill="none" stroke="black" points="156.25,-588.75 238.25,-588.75"/>
<text text-anchor="middle" x="197.25" y="-571.45" font-family="Times New Roman,serif" font-size="14.00">data 0.0000</text>
<polyline fill="none" stroke="black" points="156.25,-565 238.25,-565"/>
<text text-anchor="middle" x="197.25" y="-547.7" font-family="Times New Roman,serif" font-size="14.00">grad 1.0000</text>
</g>
<!-- 1508074391120&#45;&gt;1508082346000+ -->
<g id="edge10" class="edge">
<title>1508074391120&#45;&gt;1508082346000+</title>
<path fill="none" stroke="black" d="M196.86,-541.3C196.76,-532.78 196.66,-523.76 196.57,-515.6"/>
<polygon fill="black" stroke="black" points="200.06,-515.75 196.44,-505.79 193.06,-515.82 200.06,-515.75"/>
</g>
<!-- 1508082346192 -->
<g id="node12" class="node">
<title>1508082346192</title>
<polygon fill="none" stroke="black" points="256.75,-361 256.75,-432.25 341.75,-432.25 341.75,-361 256.75,-361"/>
<text text-anchor="middle" x="299.25" y="-414.95" font-family="Times New Roman,serif" font-size="14.00">w1*x1</text>
<polyline fill="none" stroke="black" points="256.75,-408.5 341.75,-408.5"/>
<text text-anchor="middle" x="299.25" y="-391.2" font-family="Times New Roman,serif" font-size="14.00">data &#45;5.0552</text>
<polyline fill="none" stroke="black" points="256.75,-384.75 341.75,-384.75"/>
<text text-anchor="middle" x="299.25" y="-367.45" font-family="Times New Roman,serif" font-size="14.00">grad 1.0000</text>
</g>
<!-- 1508082346192&#45;&gt;1508082346384+ -->
<g id="edge12" class="edge">
<title>1508082346192&#45;&gt;1508082346384+</title>
<path fill="none" stroke="black" d="M297.68,-361.05C297.29,-352.53 296.88,-343.51 296.51,-335.35"/>
<polygon fill="black" stroke="black" points="299.97,-335.37 296.02,-325.54 292.98,-335.68 299.97,-335.37"/>
</g>
<!-- 1508082346192* -->
<g id="node13" class="node">
<title>1508082346192*</title>
<ellipse fill="none" stroke="black" cx="299.25" cy="-486.75" rx="27" ry="18"/>
<text text-anchor="middle" x="299.25" y="-481.32" font-family="Times New Roman,serif" font-size="14.00">*</text>
</g>
<!-- 1508082346192*&#45;&gt;1508082346192 -->
<g id="edge11" class="edge">
<title>1508082346192*&#45;&gt;1508082346192</title>
<path fill="none" stroke="black" d="M299.25,-468.34C299.25,-460.99 299.25,-452.06 299.25,-443.06"/>
<polygon fill="black" stroke="black" points="302.75,-443.14 299.25,-433.14 295.75,-443.14 302.75,-443.14"/>
</g>
<!-- 1509662809872 -->
<g id="node14" class="node">
<title>1509662809872</title>
<polygon fill="none" stroke="black" points="256.75,-541.25 256.75,-612.5 341.75,-612.5 341.75,-541.25 256.75,-541.25"/>
<text text-anchor="middle" x="299.25" y="-595.2" font-family="Times New Roman,serif" font-size="14.00">w1</text>
<polyline fill="none" stroke="black" points="256.75,-588.75 341.75,-588.75"/>
<text text-anchor="middle" x="299.25" y="-571.45" font-family="Times New Roman,serif" font-size="14.00">data &#45;0.8425</text>
<polyline fill="none" stroke="black" points="256.75,-565 341.75,-565"/>
<text text-anchor="middle" x="299.25" y="-547.7" font-family="Times New Roman,serif" font-size="14.00">grad 6.0000</text>
</g>
<!-- 1509662809872&#45;&gt;1508082346192* -->
<g id="edge13" class="edge">
<title>1509662809872&#45;&gt;1508082346192*</title>
<path fill="none" stroke="black" d="M299.25,-541.3C299.25,-532.78 299.25,-523.76 299.25,-515.6"/>
<polygon fill="black" stroke="black" points="302.75,-515.79 299.25,-505.79 295.75,-515.79 302.75,-515.79"/>
</g>
<!-- 1508081974480 -->
<g id="node15" class="node">
<title>1508081974480</title>
<polygon fill="none" stroke="black" points="360,-541.25 360,-612.5 446.5,-612.5 446.5,-541.25 360,-541.25"/>
<text text-anchor="middle" x="403.25" y="-595.2" font-family="Times New Roman,serif" font-size="14.00">x1</text>
<polyline fill="none" stroke="black" points="360,-588.75 446.5,-588.75"/>
<text text-anchor="middle" x="403.25" y="-571.45" font-family="Times New Roman,serif" font-size="14.00">data 6.0000</text>
<polyline fill="none" stroke="black" points="360,-565 446.5,-565"/>
<text text-anchor="middle" x="403.25" y="-547.7" font-family="Times New Roman,serif" font-size="14.00">grad &#45;0.8425</text>
</g>
<!-- 1508081974480&#45;&gt;1508082346192* -->
<g id="edge14" class="edge">
<title>1508081974480&#45;&gt;1508082346192*</title>
<path fill="none" stroke="black" d="M362.44,-541.3C349.38,-530.23 335.34,-518.33 323.81,-508.56"/>
<polygon fill="black" stroke="black" points="326.43,-505.35 316.54,-501.56 321.91,-510.69 326.43,-505.35"/>
</g>
<!-- 1508082346512 -->
<g id="node16" class="node">
<title>1508082346512</title>
<polygon fill="none" stroke="black" points="369.75,-180.75 369.75,-252 454.75,-252 454.75,-180.75 369.75,-180.75"/>
<text text-anchor="middle" x="412.25" y="-234.7" font-family="Times New Roman,serif" font-size="14.00">w2*x2</text>
<polyline fill="none" stroke="black" points="369.75,-228.25 454.75,-228.25"/>
<text text-anchor="middle" x="412.25" y="-210.95" font-family="Times New Roman,serif" font-size="14.00">data &#45;3.1718</text>
<polyline fill="none" stroke="black" points="369.75,-204.5 454.75,-204.5"/>
<text text-anchor="middle" x="412.25" y="-187.2" font-family="Times New Roman,serif" font-size="14.00">grad 1.0000</text>
</g>
<!-- 1508082346512&#45;&gt;1508082346576+ -->
<g id="edge16" class="edge">
<title>1508082346512&#45;&gt;1508082346576+</title>
<path fill="none" stroke="black" d="M389.1,-180.8C382.65,-171.17 375.78,-160.9 369.79,-151.96"/>
<polygon fill="black" stroke="black" points="372.18,-150.23 363.71,-143.87 366.36,-154.13 372.18,-150.23"/>
</g>
<!-- 1508082346512* -->
<g id="node17" class="node">
<title>1508082346512*</title>
<ellipse fill="none" stroke="black" cx="412.25" cy="-306.5" rx="27" ry="18"/>
<text text-anchor="middle" x="412.25" y="-301.07" font-family="Times New Roman,serif" font-size="14.00">*</text>
</g>
<!-- 1508082346512*&#45;&gt;1508082346512 -->
<g id="edge15" class="edge">
<title>1508082346512*&#45;&gt;1508082346512</title>
<path fill="none" stroke="black" d="M412.25,-288.09C412.25,-280.74 412.25,-271.81 412.25,-262.81"/>
<polygon fill="black" stroke="black" points="415.75,-262.89 412.25,-252.89 408.75,-262.89 415.75,-262.89"/>
</g>
<!-- 1508071997712 -->
<g id="node18" class="node">
<title>1508071997712</title>
<polygon fill="none" stroke="black" points="366,-361 366,-432.25 452.5,-432.25 452.5,-361 366,-361"/>
<text text-anchor="middle" x="409.25" y="-414.95" font-family="Times New Roman,serif" font-size="14.00">x2</text>
<polyline fill="none" stroke="black" points="366,-408.5 452.5,-408.5"/>
<text text-anchor="middle" x="409.25" y="-391.2" font-family="Times New Roman,serif" font-size="14.00">data 4.0000</text>
<polyline fill="none" stroke="black" points="366,-384.75 452.5,-384.75"/>
<text text-anchor="middle" x="409.25" y="-367.45" font-family="Times New Roman,serif" font-size="14.00">grad &#45;0.7930</text>
</g>
<!-- 1508071997712&#45;&gt;1508082346512* -->
<g id="edge17" class="edge">
<title>1508071997712&#45;&gt;1508082346512*</title>
<path fill="none" stroke="black" d="M410.43,-361.05C410.72,-352.53 411.02,-343.51 411.3,-335.35"/>
<polygon fill="black" stroke="black" points="414.83,-335.65 411.67,-325.54 407.83,-335.41 414.83,-335.65"/>
</g>
<!-- 1508074390992 -->
<g id="node19" class="node">
<title>1508074390992</title>
<polygon fill="none" stroke="black" points="470.75,-361 470.75,-432.25 555.75,-432.25 555.75,-361 470.75,-361"/>
<text text-anchor="middle" x="513.25" y="-414.95" font-family="Times New Roman,serif" font-size="14.00">w2</text>
<polyline fill="none" stroke="black" points="470.75,-408.5 555.75,-408.5"/>
<text text-anchor="middle" x="513.25" y="-391.2" font-family="Times New Roman,serif" font-size="14.00">data &#45;0.7930</text>
<polyline fill="none" stroke="black" points="470.75,-384.75 555.75,-384.75"/>
<text text-anchor="middle" x="513.25" y="-367.45" font-family="Times New Roman,serif" font-size="14.00">grad 4.0000</text>
</g>
<!-- 1508074390992&#45;&gt;1508082346512* -->
<g id="edge18" class="edge">
<title>1508074390992&#45;&gt;1508082346512*</title>
<path fill="none" stroke="black" d="M473.62,-361.05C460.94,-349.98 447.29,-338.08 436.1,-328.31"/>
<polygon fill="black" stroke="black" points="438.91,-325.24 429.07,-321.31 434.31,-330.52 438.91,-325.24"/>
</g>
</g>
</svg>
