<?xml version="1.0" encoding="UTF-8" standalone="no"?>
<!DOCTYPE svg PUBLIC "-//W3C//DTD SVG 1.1//EN"
 "http://www.w3.org/Graphics/SVG/1.1/DTD/svg11.dtd">
<!-- Generated by graphviz version 8.1.0 (20230707.0739)
 -->
<!-- Pages: 1 -->
<svg width="748pt" height="1739pt"
 viewBox="0.00 0.00 748.00 1738.75" xmlns="http://www.w3.org/2000/svg" xmlns:xlink="http://www.w3.org/1999/xlink">
<g id="graph0" class="graph" transform="scale(1 1) rotate(0) translate(4 1734.75)">
<polygon fill="white" stroke="none" points="-4,4 -4,-1734.75 744,-1734.75 744,4 -4,4"/>
<!-- 2808826468688 -->
<g id="node1" class="node">
<title>2808826468688</title>
<polygon fill="none" stroke="black" points="406,-0.5 406,-71.75 488,-71.75 488,-0.5 406,-0.5"/>
<text text-anchor="middle" x="447" y="-54.45" font-family="Times New Roman,serif" font-size="14.00">Relu</text>
<polyline fill="none" stroke="black" points="406,-48 488,-48"/>
<text text-anchor="middle" x="447" y="-30.7" font-family="Times New Roman,serif" font-size="14.00">data 0.0000</text>
<polyline fill="none" stroke="black" points="406,-24.25 488,-24.25"/>
<text text-anchor="middle" x="447" y="-6.95" font-family="Times New Roman,serif" font-size="14.00">grad 1.0000</text>
</g>
<!-- 2808826468688ReLU -->
<g id="node2" class="node">
<title>2808826468688ReLU</title>
<ellipse fill="none" stroke="black" cx="447" cy="-126.25" rx="33.1" ry="18"/>
<text text-anchor="middle" x="447" y="-120.83" font-family="Times New Roman,serif" font-size="14.00">ReLU</text>
</g>
<!-- 2808826468688ReLU&#45;&gt;2808826468688 -->
<g id="edge1" class="edge">
<title>2808826468688ReLU&#45;&gt;2808826468688</title>
<path fill="none" stroke="black" d="M447,-107.84C447,-100.49 447,-91.56 447,-82.56"/>
<polygon fill="black" stroke="black" points="450.5,-82.64 447,-72.64 443.5,-82.64 450.5,-82.64"/>
</g>
<!-- 2808846788368 -->
<g id="node3" class="node">
<title>2808846788368</title>
<polygon fill="none" stroke="black" points="390.25,-180.75 390.25,-252 503.75,-252 503.75,-180.75 390.25,-180.75"/>
<text text-anchor="middle" x="447" y="-234.7" font-family="Times New Roman,serif" font-size="14.00">b+w0*x0+w1*x1</text>
<polyline fill="none" stroke="black" points="390.25,-228.25 503.75,-228.25"/>
<text text-anchor="middle" x="447" y="-210.95" font-family="Times New Roman,serif" font-size="14.00">data &#45;0.1042</text>
<polyline fill="none" stroke="black" points="390.25,-204.5 503.75,-204.5"/>
<text text-anchor="middle" x="447" y="-187.2" font-family="Times New Roman,serif" font-size="14.00">grad 0.0000</text>
</g>
<!-- 2808846788368&#45;&gt;2808826468688ReLU -->
<g id="edge3" class="edge">
<title>2808846788368&#45;&gt;2808826468688ReLU</title>
<path fill="none" stroke="black" d="M447,-180.8C447,-172.28 447,-163.26 447,-155.1"/>
<polygon fill="black" stroke="black" points="450.5,-155.29 447,-145.29 443.5,-155.29 450.5,-155.29"/>
</g>
<!-- 2808846788368+ -->
<g id="node4" class="node">
<title>2808846788368+</title>
<ellipse fill="none" stroke="black" cx="447" cy="-306.5" rx="27" ry="18"/>
<text text-anchor="middle" x="447" y="-301.07" font-family="Times New Roman,serif" font-size="14.00">+</text>
</g>
<!-- 2808846788368+&#45;&gt;2808846788368 -->
<g id="edge2" class="edge">
<title>2808846788368+&#45;&gt;2808846788368</title>
<path fill="none" stroke="black" d="M447,-288.09C447,-280.74 447,-271.81 447,-262.81"/>
<polygon fill="black" stroke="black" points="450.5,-262.89 447,-252.89 443.5,-262.89 450.5,-262.89"/>
</g>
<!-- 2808846787984 -->
<g id="node5" class="node">
<title>2808846787984</title>
<polygon fill="none" stroke="black" points="372,-361 372,-432.25 454,-432.25 454,-361 372,-361"/>
<text text-anchor="middle" x="413" y="-414.95" font-family="Times New Roman,serif" font-size="14.00">b+w0*x0</text>
<polyline fill="none" stroke="black" points="372,-408.5 454,-408.5"/>
<text text-anchor="middle" x="413" y="-391.2" font-family="Times New Roman,serif" font-size="14.00">data 0.2438</text>
<polyline fill="none" stroke="black" points="372,-384.75 454,-384.75"/>
<text text-anchor="middle" x="413" y="-367.45" font-family="Times New Roman,serif" font-size="14.00">grad 0.0000</text>
</g>
<!-- 2808846787984&#45;&gt;2808846788368+ -->
<g id="edge5" class="edge">
<title>2808846787984&#45;&gt;2808846788368+</title>
<path fill="none" stroke="black" d="M426.34,-361.05C429.79,-352.1 433.46,-342.6 436.73,-334.13"/>
<polygon fill="black" stroke="black" points="440.28,-335.65 440.61,-325.06 433.75,-333.13 440.28,-335.65"/>
</g>
<!-- 2808846787984+ -->
<g id="node6" class="node">
<title>2808846787984+</title>
<ellipse fill="none" stroke="black" cx="404" cy="-504.88" rx="27" ry="18"/>
<text text-anchor="middle" x="404" y="-499.45" font-family="Times New Roman,serif" font-size="14.00">+</text>
</g>
<!-- 2808846787984+&#45;&gt;2808846787984 -->
<g id="edge4" class="edge">
<title>2808846787984+&#45;&gt;2808846787984</title>
<path fill="none" stroke="black" d="M405.45,-486.8C406.46,-474.79 407.88,-458.13 409.2,-442.45"/>
<polygon fill="black" stroke="black" points="412.75,-443.08 410.1,-432.82 405.77,-442.49 412.75,-443.08"/>
</g>
<!-- 2808846787856 -->
<g id="node7" class="node">
<title>2808846787856</title>
<polygon fill="none" stroke="black" points="363,-577.5 363,-648.75 445,-648.75 445,-577.5 363,-577.5"/>
<text text-anchor="middle" x="404" y="-631.45" font-family="Times New Roman,serif" font-size="14.00">w0*x0</text>
<polyline fill="none" stroke="black" points="363,-625 445,-625"/>
<text text-anchor="middle" x="404" y="-607.7" font-family="Times New Roman,serif" font-size="14.00">data 0.2438</text>
<polyline fill="none" stroke="black" points="363,-601.25 445,-601.25"/>
<text text-anchor="middle" x="404" y="-583.95" font-family="Times New Roman,serif" font-size="14.00">grad 0.0000</text>
</g>
<!-- 2808846787856&#45;&gt;2808846787984+ -->
<g id="edge7" class="edge">
<title>2808846787856&#45;&gt;2808846787984+</title>
<path fill="none" stroke="black" d="M404,-577.63C404,-563.57 404,-547.52 404,-534.16"/>
<polygon fill="black" stroke="black" points="407.5,-534.24 404,-524.24 400.5,-534.24 407.5,-534.24"/>
</g>
<!-- 2808846787856* -->
<g id="node8" class="node">
<title>2808846787856*</title>
<ellipse fill="none" stroke="black" cx="402" cy="-703.25" rx="27" ry="18"/>
<text text-anchor="middle" x="402" y="-697.83" font-family="Times New Roman,serif" font-size="14.00">*</text>
</g>
<!-- 2808846787856*&#45;&gt;2808846787856 -->
<g id="edge6" class="edge">
<title>2808846787856*&#45;&gt;2808846787856</title>
<path fill="none" stroke="black" d="M402.4,-684.84C402.56,-677.49 402.76,-668.56 402.97,-659.56"/>
<polygon fill="black" stroke="black" points="406.49,-659.71 403.22,-649.64 399.49,-659.55 406.49,-659.71"/>
</g>
<!-- 2808846784144 -->
<g id="node9" class="node">
<title>2808846784144</title>
<polygon fill="none" stroke="black" points="261,-757.75 261,-829 343,-829 343,-757.75 261,-757.75"/>
<text text-anchor="middle" x="302" y="-811.7" font-family="Times New Roman,serif" font-size="14.00">x0</text>
<polyline fill="none" stroke="black" points="261,-805.25 343,-805.25"/>
<text text-anchor="middle" x="302" y="-787.95" font-family="Times New Roman,serif" font-size="14.00">data 0.7331</text>
<polyline fill="none" stroke="black" points="261,-781.5 343,-781.5"/>
<text text-anchor="middle" x="302" y="-764.2" font-family="Times New Roman,serif" font-size="14.00">grad 0.0000</text>
</g>
<!-- 2808846784144&#45;&gt;2808846787856* -->
<g id="edge9" class="edge">
<title>2808846784144&#45;&gt;2808846787856*</title>
<path fill="none" stroke="black" d="M341.24,-757.8C353.58,-746.92 366.85,-735.22 377.83,-725.55"/>
<polygon fill="black" stroke="black" points="379.89,-728.52 385.08,-719.28 375.26,-723.26 379.89,-728.52"/>
</g>
<!-- 2808846784144ReLU -->
<g id="node10" class="node">
<title>2808846784144ReLU</title>
<ellipse fill="none" stroke="black" cx="302" cy="-883.5" rx="33.1" ry="18"/>
<text text-anchor="middle" x="302" y="-878.08" font-family="Times New Roman,serif" font-size="14.00">ReLU</text>
</g>
<!-- 2808846784144ReLU&#45;&gt;2808846784144 -->
<g id="edge8" class="edge">
<title>2808846784144ReLU&#45;&gt;2808846784144</title>
<path fill="none" stroke="black" d="M302,-865.09C302,-857.74 302,-848.81 302,-839.81"/>
<polygon fill="black" stroke="black" points="305.5,-839.89 302,-829.89 298.5,-839.89 305.5,-839.89"/>
</g>
<!-- 2808846786512 -->
<g id="node11" class="node">
<title>2808846786512</title>
<polygon fill="none" stroke="black" points="222.75,-938 222.75,-1009.25 381.25,-1009.25 381.25,-938 222.75,-938"/>
<text text-anchor="middle" x="302" y="-991.95" font-family="Times New Roman,serif" font-size="14.00">b+w0*x0+w1*x1+w2*x2</text>
<polyline fill="none" stroke="black" points="222.75,-985.5 381.25,-985.5"/>
<text text-anchor="middle" x="302" y="-968.2" font-family="Times New Roman,serif" font-size="14.00">data 0.7331</text>
<polyline fill="none" stroke="black" points="222.75,-961.75 381.25,-961.75"/>
<text text-anchor="middle" x="302" y="-944.45" font-family="Times New Roman,serif" font-size="14.00">grad 0.0000</text>
</g>
<!-- 2808846786512&#45;&gt;2808846784144ReLU -->
<g id="edge11" class="edge">
<title>2808846786512&#45;&gt;2808846784144ReLU</title>
<path fill="none" stroke="black" d="M302,-938.05C302,-929.53 302,-920.51 302,-912.35"/>
<polygon fill="black" stroke="black" points="305.5,-912.54 302,-902.54 298.5,-912.54 305.5,-912.54"/>
</g>
<!-- 2808846786512+ -->
<g id="node12" class="node">
<title>2808846786512+</title>
<ellipse fill="none" stroke="black" cx="302" cy="-1063.75" rx="27" ry="18"/>
<text text-anchor="middle" x="302" y="-1058.33" font-family="Times New Roman,serif" font-size="14.00">+</text>
</g>
<!-- 2808846786512+&#45;&gt;2808846786512 -->
<g id="edge10" class="edge">
<title>2808846786512+&#45;&gt;2808846786512</title>
<path fill="none" stroke="black" d="M302,-1045.34C302,-1037.99 302,-1029.06 302,-1020.06"/>
<polygon fill="black" stroke="black" points="305.5,-1020.14 302,-1010.14 298.5,-1020.14 305.5,-1020.14"/>
</g>
<!-- 2808846786192 -->
<g id="node13" class="node">
<title>2808846786192</title>
<polygon fill="none" stroke="black" points="133.25,-1118.25 133.25,-1189.5 246.75,-1189.5 246.75,-1118.25 133.25,-1118.25"/>
<text text-anchor="middle" x="190" y="-1172.2" font-family="Times New Roman,serif" font-size="14.00">b+w0*x0+w1*x1</text>
<polyline fill="none" stroke="black" points="133.25,-1165.75 246.75,-1165.75"/>
<text text-anchor="middle" x="190" y="-1148.45" font-family="Times New Roman,serif" font-size="14.00">data 0.3431</text>
<polyline fill="none" stroke="black" points="133.25,-1142 246.75,-1142"/>
<text text-anchor="middle" x="190" y="-1124.7" font-family="Times New Roman,serif" font-size="14.00">grad 0.0000</text>
</g>
<!-- 2808846786192&#45;&gt;2808846786512+ -->
<g id="edge13" class="edge">
<title>2808846786192&#45;&gt;2808846786512+</title>
<path fill="none" stroke="black" d="M233.94,-1118.3C248.34,-1106.97 263.86,-1094.76 276.44,-1084.87"/>
<polygon fill="black" stroke="black" points="278.32,-1087.05 284.01,-1078.11 273.99,-1081.55 278.32,-1087.05"/>
</g>
<!-- 2808846786192+ -->
<g id="node14" class="node">
<title>2808846786192+</title>
<ellipse fill="none" stroke="black" cx="190" cy="-1244" rx="27" ry="18"/>
<text text-anchor="middle" x="190" y="-1238.58" font-family="Times New Roman,serif" font-size="14.00">+</text>
</g>
<!-- 2808846786192+&#45;&gt;2808846786192 -->
<g id="edge12" class="edge">
<title>2808846786192+&#45;&gt;2808846786192</title>
<path fill="none" stroke="black" d="M190,-1225.59C190,-1218.24 190,-1209.31 190,-1200.31"/>
<polygon fill="black" stroke="black" points="193.5,-1200.39 190,-1190.39 186.5,-1200.39 193.5,-1200.39"/>
</g>
<!-- 2808846784016 -->
<g id="node15" class="node">
<title>2808846784016</title>
<polygon fill="none" stroke="black" points="148.5,-1298.5 148.5,-1369.75 233.5,-1369.75 233.5,-1298.5 148.5,-1298.5"/>
<text text-anchor="middle" x="191" y="-1352.45" font-family="Times New Roman,serif" font-size="14.00">w1*x1</text>
<polyline fill="none" stroke="black" points="148.5,-1346 233.5,-1346"/>
<text text-anchor="middle" x="191" y="-1328.7" font-family="Times New Roman,serif" font-size="14.00">data &#45;0.1154</text>
<polyline fill="none" stroke="black" points="148.5,-1322.25 233.5,-1322.25"/>
<text text-anchor="middle" x="191" y="-1304.95" font-family="Times New Roman,serif" font-size="14.00">grad 0.0000</text>
</g>
<!-- 2808846784016&#45;&gt;2808846786192+ -->
<g id="edge15" class="edge">
<title>2808846784016&#45;&gt;2808846786192+</title>
<path fill="none" stroke="black" d="M190.61,-1298.55C190.51,-1290.03 190.41,-1281.01 190.32,-1272.85"/>
<polygon fill="black" stroke="black" points="193.81,-1273 190.19,-1263.04 186.81,-1273.07 193.81,-1273"/>
</g>
<!-- 2808846784016* -->
<g id="node16" class="node">
<title>2808846784016*</title>
<ellipse fill="none" stroke="black" cx="241" cy="-1424.25" rx="27" ry="18"/>
<text text-anchor="middle" x="241" y="-1418.83" font-family="Times New Roman,serif" font-size="14.00">*</text>
</g>
<!-- 2808846784016*&#45;&gt;2808846784016 -->
<g id="edge14" class="edge">
<title>2808846784016*&#45;&gt;2808846784016</title>
<path fill="none" stroke="black" d="M231.83,-1407.09C227.3,-1399.1 221.59,-1389.05 215.89,-1379"/>
<polygon fill="black" stroke="black" points="218.45,-1377.41 210.47,-1370.44 212.36,-1380.87 218.45,-1377.41"/>
</g>
<!-- 2808846783632 -->
<g id="node17" class="node">
<title>2808846783632</title>
<polygon fill="none" stroke="black" points="300.5,-1478.75 300.5,-1550 385.5,-1550 385.5,-1478.75 300.5,-1478.75"/>
<text text-anchor="middle" x="343" y="-1532.7" font-family="Times New Roman,serif" font-size="14.00">x1</text>
<polyline fill="none" stroke="black" points="300.5,-1526.25 385.5,-1526.25"/>
<text text-anchor="middle" x="343" y="-1508.95" font-family="Times New Roman,serif" font-size="14.00">data &#45;0.1296</text>
<polyline fill="none" stroke="black" points="300.5,-1502.5 385.5,-1502.5"/>
<text text-anchor="middle" x="343" y="-1485.2" font-family="Times New Roman,serif" font-size="14.00">grad 0.0000</text>
</g>
<!-- 2808846783632&#45;&gt;2808846784016* -->
<g id="edge16" class="edge">
<title>2808846783632&#45;&gt;2808846784016*</title>
<path fill="none" stroke="black" d="M302.98,-1478.8C290.17,-1467.73 276.39,-1455.83 265.09,-1446.06"/>
<polygon fill="black" stroke="black" points="267.83,-1442.95 257.98,-1439.06 263.26,-1448.24 267.83,-1442.95"/>
</g>
<!-- 2808846787088* -->
<g id="node47" class="node">
<title>2808846787088*</title>
<ellipse fill="none" stroke="black" cx="446" cy="-1424.25" rx="27" ry="18"/>
<text text-anchor="middle" x="446" y="-1418.83" font-family="Times New Roman,serif" font-size="14.00">*</text>
</g>
<!-- 2808846783632&#45;&gt;2808846787088* -->
<g id="edge48" class="edge">
<title>2808846783632&#45;&gt;2808846787088*</title>
<path fill="none" stroke="black" d="M383.41,-1478.8C396.35,-1467.73 410.26,-1455.83 421.68,-1446.06"/>
<polygon fill="black" stroke="black" points="423.54,-1448.22 428.86,-1439.06 418.99,-1442.9 423.54,-1448.22"/>
</g>
<!-- 2808824624144 -->
<g id="node18" class="node">
<title>2808824624144</title>
<polygon fill="none" stroke="black" points="200,-1478.75 200,-1550 282,-1550 282,-1478.75 200,-1478.75"/>
<text text-anchor="middle" x="241" y="-1532.7" font-family="Times New Roman,serif" font-size="14.00">w1</text>
<polyline fill="none" stroke="black" points="200,-1526.25 282,-1526.25"/>
<text text-anchor="middle" x="241" y="-1508.95" font-family="Times New Roman,serif" font-size="14.00">data 0.8903</text>
<polyline fill="none" stroke="black" points="200,-1502.5 282,-1502.5"/>
<text text-anchor="middle" x="241" y="-1485.2" font-family="Times New Roman,serif" font-size="14.00">grad 0.0000</text>
</g>
<!-- 2808824624144&#45;&gt;2808846784016* -->
<g id="edge17" class="edge">
<title>2808824624144&#45;&gt;2808846784016*</title>
<path fill="none" stroke="black" d="M241,-1478.8C241,-1470.28 241,-1461.26 241,-1453.1"/>
<polygon fill="black" stroke="black" points="244.5,-1453.29 241,-1443.29 237.5,-1453.29 244.5,-1453.29"/>
</g>
<!-- 2808823055056 -->
<g id="node19" class="node">
<title>2808823055056</title>
<polygon fill="none" stroke="black" points="48,-1298.5 48,-1369.75 130,-1369.75 130,-1298.5 48,-1298.5"/>
<text text-anchor="middle" x="89" y="-1352.45" font-family="Times New Roman,serif" font-size="14.00">b+w0*x0</text>
<polyline fill="none" stroke="black" points="48,-1346 130,-1346"/>
<text text-anchor="middle" x="89" y="-1328.7" font-family="Times New Roman,serif" font-size="14.00">data 0.4585</text>
<polyline fill="none" stroke="black" points="48,-1322.25 130,-1322.25"/>
<text text-anchor="middle" x="89" y="-1304.95" font-family="Times New Roman,serif" font-size="14.00">grad 0.0000</text>
</g>
<!-- 2808823055056&#45;&gt;2808846786192+ -->
<g id="edge19" class="edge">
<title>2808823055056&#45;&gt;2808846786192+</title>
<path fill="none" stroke="black" d="M128.63,-1298.55C141.31,-1287.48 154.96,-1275.58 166.15,-1265.81"/>
<polygon fill="black" stroke="black" points="167.94,-1268.02 173.18,-1258.81 163.34,-1262.74 167.94,-1268.02"/>
</g>
<!-- 2808823055056+ -->
<g id="node20" class="node">
<title>2808823055056+</title>
<ellipse fill="none" stroke="black" cx="89" cy="-1424.25" rx="27" ry="18"/>
<text text-anchor="middle" x="89" y="-1418.83" font-family="Times New Roman,serif" font-size="14.00">+</text>
</g>
<!-- 2808823055056+&#45;&gt;2808823055056 -->
<g id="edge18" class="edge">
<title>2808823055056+&#45;&gt;2808823055056</title>
<path fill="none" stroke="black" d="M89,-1405.84C89,-1398.49 89,-1389.56 89,-1380.56"/>
<polygon fill="black" stroke="black" points="92.5,-1380.64 89,-1370.64 85.5,-1380.64 92.5,-1380.64"/>
</g>
<!-- 2808263965840 -->
<g id="node21" class="node">
<title>2808263965840</title>
<polygon fill="none" stroke="black" points="0,-1478.75 0,-1550 82,-1550 82,-1478.75 0,-1478.75"/>
<text text-anchor="middle" x="41" y="-1532.7" font-family="Times New Roman,serif" font-size="14.00">b</text>
<polyline fill="none" stroke="black" points="0,-1526.25 82,-1526.25"/>
<text text-anchor="middle" x="41" y="-1508.95" font-family="Times New Roman,serif" font-size="14.00">data 0.0000</text>
<polyline fill="none" stroke="black" points="0,-1502.5 82,-1502.5"/>
<text text-anchor="middle" x="41" y="-1485.2" font-family="Times New Roman,serif" font-size="14.00">grad 0.0000</text>
</g>
<!-- 2808263965840&#45;&gt;2808823055056+ -->
<g id="edge20" class="edge">
<title>2808263965840&#45;&gt;2808823055056+</title>
<path fill="none" stroke="black" d="M59.83,-1478.8C64.89,-1469.51 70.27,-1459.63 75.02,-1450.92"/>
<polygon fill="black" stroke="black" points="78.53,-1452.79 80.24,-1442.34 72.38,-1449.45 78.53,-1452.79"/>
</g>
<!-- 2808846784720 -->
<g id="node22" class="node">
<title>2808846784720</title>
<polygon fill="none" stroke="black" points="100,-1478.75 100,-1550 182,-1550 182,-1478.75 100,-1478.75"/>
<text text-anchor="middle" x="141" y="-1532.7" font-family="Times New Roman,serif" font-size="14.00">w0*x0</text>
<polyline fill="none" stroke="black" points="100,-1526.25 182,-1526.25"/>
<text text-anchor="middle" x="141" y="-1508.95" font-family="Times New Roman,serif" font-size="14.00">data 0.4585</text>
<polyline fill="none" stroke="black" points="100,-1502.5 182,-1502.5"/>
<text text-anchor="middle" x="141" y="-1485.2" font-family="Times New Roman,serif" font-size="14.00">grad 0.0000</text>
</g>
<!-- 2808846784720&#45;&gt;2808823055056+ -->
<g id="edge22" class="edge">
<title>2808846784720&#45;&gt;2808823055056+</title>
<path fill="none" stroke="black" d="M120.6,-1478.8C115.06,-1469.41 109.16,-1459.42 103.98,-1450.64"/>
<polygon fill="black" stroke="black" points="106.59,-1449.17 98.49,-1442.34 100.56,-1452.73 106.59,-1449.17"/>
</g>
<!-- 2808846784720* -->
<g id="node23" class="node">
<title>2808846784720*</title>
<ellipse fill="none" stroke="black" cx="167" cy="-1604.5" rx="27" ry="18"/>
<text text-anchor="middle" x="167" y="-1599.08" font-family="Times New Roman,serif" font-size="14.00">*</text>
</g>
<!-- 2808846784720*&#45;&gt;2808846784720 -->
<g id="edge21" class="edge">
<title>2808846784720*&#45;&gt;2808846784720</title>
<path fill="none" stroke="black" d="M161.99,-1586.51C159.76,-1578.95 157.01,-1569.66 154.26,-1560.31"/>
<polygon fill="black" stroke="black" points="157.35,-1559.43 151.16,-1550.83 150.64,-1561.41 157.35,-1559.43"/>
</g>
<!-- 2808846783568 -->
<g id="node24" class="node">
<title>2808846783568</title>
<polygon fill="none" stroke="black" points="329,-1659 329,-1730.25 411,-1730.25 411,-1659 329,-1659"/>
<text text-anchor="middle" x="370" y="-1712.95" font-family="Times New Roman,serif" font-size="14.00">x0</text>
<polyline fill="none" stroke="black" points="329,-1706.5 411,-1706.5"/>
<text text-anchor="middle" x="370" y="-1689.2" font-family="Times New Roman,serif" font-size="14.00">data 0.7942</text>
<polyline fill="none" stroke="black" points="329,-1682.75 411,-1682.75"/>
<text text-anchor="middle" x="370" y="-1665.45" font-family="Times New Roman,serif" font-size="14.00">grad 0.0000</text>
</g>
<!-- 2808846783568&#45;&gt;2808846784720* -->
<g id="edge23" class="edge">
<title>2808846783568&#45;&gt;2808846784720*</title>
<path fill="none" stroke="black" d="M329.41,-1676C291.08,-1659.36 234.35,-1634.74 199.09,-1619.43"/>
<polygon fill="black" stroke="black" points="200.87,-1615.96 190.31,-1615.18 198.09,-1622.38 200.87,-1615.96"/>
</g>
<!-- 2808846786640* -->
<g id="node44" class="node">
<title>2808846786640*</title>
<ellipse fill="none" stroke="black" cx="522" cy="-1604.5" rx="27" ry="18"/>
<text text-anchor="middle" x="522" y="-1599.08" font-family="Times New Roman,serif" font-size="14.00">*</text>
</g>
<!-- 2808846783568&#45;&gt;2808846786640* -->
<g id="edge44" class="edge">
<title>2808846783568&#45;&gt;2808846786640*</title>
<path fill="none" stroke="black" d="M410.73,-1670.01C436.59,-1655.02 469.44,-1635.97 492.72,-1622.47"/>
<polygon fill="black" stroke="black" points="494.17,-1625.1 501.07,-1617.05 490.66,-1619.04 494.17,-1625.1"/>
</g>
<!-- 2808263700944 -->
<g id="node25" class="node">
<title>2808263700944</title>
<polygon fill="none" stroke="black" points="126,-1659 126,-1730.25 208,-1730.25 208,-1659 126,-1659"/>
<text text-anchor="middle" x="167" y="-1712.95" font-family="Times New Roman,serif" font-size="14.00">w0</text>
<polyline fill="none" stroke="black" points="126,-1706.5 208,-1706.5"/>
<text text-anchor="middle" x="167" y="-1689.2" font-family="Times New Roman,serif" font-size="14.00">data 0.5772</text>
<polyline fill="none" stroke="black" points="126,-1682.75 208,-1682.75"/>
<text text-anchor="middle" x="167" y="-1665.45" font-family="Times New Roman,serif" font-size="14.00">grad 0.0000</text>
</g>
<!-- 2808263700944&#45;&gt;2808846784720* -->
<g id="edge24" class="edge">
<title>2808263700944&#45;&gt;2808846784720*</title>
<path fill="none" stroke="black" d="M167,-1659.05C167,-1650.53 167,-1641.51 167,-1633.35"/>
<polygon fill="black" stroke="black" points="170.5,-1633.54 167,-1623.54 163.5,-1633.54 170.5,-1633.54"/>
</g>
<!-- 2808846785872 -->
<g id="node26" class="node">
<title>2808846785872</title>
<polygon fill="none" stroke="black" points="265,-1118.25 265,-1189.5 347,-1189.5 347,-1118.25 265,-1118.25"/>
<text text-anchor="middle" x="306" y="-1172.2" font-family="Times New Roman,serif" font-size="14.00">w2*x2</text>
<polyline fill="none" stroke="black" points="265,-1165.75 347,-1165.75"/>
<text text-anchor="middle" x="306" y="-1148.45" font-family="Times New Roman,serif" font-size="14.00">data 0.3900</text>
<polyline fill="none" stroke="black" points="265,-1142 347,-1142"/>
<text text-anchor="middle" x="306" y="-1124.7" font-family="Times New Roman,serif" font-size="14.00">grad 0.0000</text>
</g>
<!-- 2808846785872&#45;&gt;2808846786512+ -->
<g id="edge26" class="edge">
<title>2808846785872&#45;&gt;2808846786512+</title>
<path fill="none" stroke="black" d="M304.43,-1118.3C304.04,-1109.78 303.63,-1100.76 303.26,-1092.6"/>
<polygon fill="black" stroke="black" points="306.72,-1092.62 302.77,-1082.79 299.73,-1092.93 306.72,-1092.62"/>
</g>
<!-- 2808846785872* -->
<g id="node27" class="node">
<title>2808846785872*</title>
<ellipse fill="none" stroke="black" cx="306" cy="-1244" rx="27" ry="18"/>
<text text-anchor="middle" x="306" y="-1238.58" font-family="Times New Roman,serif" font-size="14.00">*</text>
</g>
<!-- 2808846785872*&#45;&gt;2808846785872 -->
<g id="edge25" class="edge">
<title>2808846785872*&#45;&gt;2808846785872</title>
<path fill="none" stroke="black" d="M306,-1225.59C306,-1218.24 306,-1209.31 306,-1200.31"/>
<polygon fill="black" stroke="black" points="309.5,-1200.39 306,-1190.39 302.5,-1200.39 309.5,-1200.39"/>
</g>
<!-- 2808263701136 -->
<g id="node28" class="node">
<title>2808263701136</title>
<polygon fill="none" stroke="black" points="251.5,-1298.5 251.5,-1369.75 336.5,-1369.75 336.5,-1298.5 251.5,-1298.5"/>
<text text-anchor="middle" x="294" y="-1352.45" font-family="Times New Roman,serif" font-size="14.00">w2</text>
<polyline fill="none" stroke="black" points="251.5,-1346 336.5,-1346"/>
<text text-anchor="middle" x="294" y="-1328.7" font-family="Times New Roman,serif" font-size="14.00">data &#45;0.7214</text>
<polyline fill="none" stroke="black" points="251.5,-1322.25 336.5,-1322.25"/>
<text text-anchor="middle" x="294" y="-1304.95" font-family="Times New Roman,serif" font-size="14.00">grad 0.0000</text>
</g>
<!-- 2808263701136&#45;&gt;2808846785872* -->
<g id="edge27" class="edge">
<title>2808263701136&#45;&gt;2808846785872*</title>
<path fill="none" stroke="black" d="M298.71,-1298.55C299.87,-1290.03 301.1,-1281.01 302.21,-1272.85"/>
<polygon fill="black" stroke="black" points="305.8,-1273.42 303.68,-1263.04 298.86,-1272.47 305.8,-1273.42"/>
</g>
<!-- 2808846783824 -->
<g id="node29" class="node">
<title>2808846783824</title>
<polygon fill="none" stroke="black" points="354.5,-1298.5 354.5,-1369.75 439.5,-1369.75 439.5,-1298.5 354.5,-1298.5"/>
<text text-anchor="middle" x="397" y="-1352.45" font-family="Times New Roman,serif" font-size="14.00">x2</text>
<polyline fill="none" stroke="black" points="354.5,-1346 439.5,-1346"/>
<text text-anchor="middle" x="397" y="-1328.7" font-family="Times New Roman,serif" font-size="14.00">data &#45;0.5407</text>
<polyline fill="none" stroke="black" points="354.5,-1322.25 439.5,-1322.25"/>
<text text-anchor="middle" x="397" y="-1304.95" font-family="Times New Roman,serif" font-size="14.00">grad 0.0000</text>
</g>
<!-- 2808846783824&#45;&gt;2808846785872* -->
<g id="edge28" class="edge">
<title>2808846783824&#45;&gt;2808846785872*</title>
<path fill="none" stroke="black" d="M361.3,-1298.55C350.25,-1287.85 338.39,-1276.37 328.5,-1266.79"/>
<polygon fill="black" stroke="black" points="331.34,-1264.69 321.72,-1260.25 326.47,-1269.72 331.34,-1264.69"/>
</g>
<!-- 2808846787344* -->
<g id="node50" class="node">
<title>2808846787344*</title>
<ellipse fill="none" stroke="black" cx="618" cy="-1244" rx="27" ry="18"/>
<text text-anchor="middle" x="618" y="-1238.58" font-family="Times New Roman,serif" font-size="14.00">*</text>
</g>
<!-- 2808846783824&#45;&gt;2808846787344* -->
<g id="edge53" class="edge">
<title>2808846783824&#45;&gt;2808846787344*</title>
<path fill="none" stroke="black" d="M439.26,-1303.15C442.49,-1301.3 445.76,-1299.56 449,-1298 492.74,-1276.92 546.82,-1261.68 581.85,-1253.1"/>
<polygon fill="black" stroke="black" points="582.6,-1256.28 591.51,-1250.55 580.97,-1249.47 582.6,-1256.28"/>
</g>
<!-- 2808846783312 -->
<g id="node30" class="node">
<title>2808846783312</title>
<polygon fill="none" stroke="black" points="361,-757.75 361,-829 443,-829 443,-757.75 361,-757.75"/>
<text text-anchor="middle" x="402" y="-811.7" font-family="Times New Roman,serif" font-size="14.00">w0</text>
<polyline fill="none" stroke="black" points="361,-805.25 443,-805.25"/>
<text text-anchor="middle" x="402" y="-787.95" font-family="Times New Roman,serif" font-size="14.00">data 0.3325</text>
<polyline fill="none" stroke="black" points="361,-781.5 443,-781.5"/>
<text text-anchor="middle" x="402" y="-764.2" font-family="Times New Roman,serif" font-size="14.00">grad 0.0000</text>
</g>
<!-- 2808846783312&#45;&gt;2808846787856* -->
<g id="edge29" class="edge">
<title>2808846783312&#45;&gt;2808846787856*</title>
<path fill="none" stroke="black" d="M402,-757.8C402,-749.28 402,-740.26 402,-732.1"/>
<polygon fill="black" stroke="black" points="405.5,-732.29 402,-722.29 398.5,-732.29 405.5,-732.29"/>
</g>
<!-- 2808846783504 -->
<g id="node31" class="node">
<title>2808846783504</title>
<polygon fill="none" stroke="black" points="263,-577.5 263,-648.75 345,-648.75 345,-577.5 263,-577.5"/>
<text text-anchor="middle" x="304" y="-631.45" font-family="Times New Roman,serif" font-size="14.00">b</text>
<polyline fill="none" stroke="black" points="263,-625 345,-625"/>
<text text-anchor="middle" x="304" y="-607.7" font-family="Times New Roman,serif" font-size="14.00">data 0.0000</text>
<polyline fill="none" stroke="black" points="263,-601.25 345,-601.25"/>
<text text-anchor="middle" x="304" y="-583.95" font-family="Times New Roman,serif" font-size="14.00">grad 0.0000</text>
</g>
<!-- 2808846783504&#45;&gt;2808846787984+ -->
<g id="edge30" class="edge">
<title>2808846783504&#45;&gt;2808846787984+</title>
<path fill="none" stroke="black" d="M336.47,-577.63C351.63,-561.52 369.25,-542.8 382.69,-528.52"/>
<polygon fill="black" stroke="black" points="384.77,-531.35 389.07,-521.67 379.67,-526.56 384.77,-531.35"/>
</g>
<!-- 2808846788176 -->
<g id="node32" class="node">
<title>2808846788176</title>
<polygon fill="none" stroke="black" points="452.5,-469.25 452.5,-540.5 537.5,-540.5 537.5,-469.25 452.5,-469.25"/>
<text text-anchor="middle" x="495" y="-523.2" font-family="Times New Roman,serif" font-size="14.00">w1*x1</text>
<polyline fill="none" stroke="black" points="452.5,-516.75 537.5,-516.75"/>
<text text-anchor="middle" x="495" y="-499.45" font-family="Times New Roman,serif" font-size="14.00">data &#45;0.3479</text>
<polyline fill="none" stroke="black" points="452.5,-493 537.5,-493"/>
<text text-anchor="middle" x="495" y="-475.7" font-family="Times New Roman,serif" font-size="14.00">grad 0.0000</text>
</g>
<!-- 2808846788176&#45;&gt;2808846788368+ -->
<g id="edge32" class="edge">
<title>2808846788176&#45;&gt;2808846788368+</title>
<path fill="none" stroke="black" d="M488.07,-469.52C482.02,-440.37 472.7,-397.51 463,-360.5 460.82,-352.19 458.21,-343.22 455.74,-335.07"/>
<polygon fill="black" stroke="black" points="458.8,-334.12 452.51,-325.6 452.11,-336.18 458.8,-334.12"/>
</g>
<!-- 2808846788176* -->
<g id="node33" class="node">
<title>2808846788176*</title>
<ellipse fill="none" stroke="black" cx="502" cy="-703.25" rx="27" ry="18"/>
<text text-anchor="middle" x="502" y="-697.83" font-family="Times New Roman,serif" font-size="14.00">*</text>
</g>
<!-- 2808846788176*&#45;&gt;2808846788176 -->
<g id="edge31" class="edge">
<title>2808846788176*&#45;&gt;2808846788176</title>
<path fill="none" stroke="black" d="M501.38,-684.82C500.32,-655.1 498.13,-593.68 496.61,-551.15"/>
<polygon fill="black" stroke="black" points="500.08,-551.1 496.22,-541.23 493.08,-551.35 500.08,-551.1"/>
</g>
<!-- 2808846783888 -->
<g id="node34" class="node">
<title>2808846783888</title>
<polygon fill="none" stroke="black" points="461,-757.75 461,-829 543,-829 543,-757.75 461,-757.75"/>
<text text-anchor="middle" x="502" y="-811.7" font-family="Times New Roman,serif" font-size="14.00">x1</text>
<polyline fill="none" stroke="black" points="461,-805.25 543,-805.25"/>
<text text-anchor="middle" x="502" y="-787.95" font-family="Times New Roman,serif" font-size="14.00">data 0.3959</text>
<polyline fill="none" stroke="black" points="461,-781.5 543,-781.5"/>
<text text-anchor="middle" x="502" y="-764.2" font-family="Times New Roman,serif" font-size="14.00">grad 0.0000</text>
</g>
<!-- 2808846783888&#45;&gt;2808846788176* -->
<g id="edge34" class="edge">
<title>2808846783888&#45;&gt;2808846788176*</title>
<path fill="none" stroke="black" d="M502,-757.8C502,-749.28 502,-740.26 502,-732.1"/>
<polygon fill="black" stroke="black" points="505.5,-732.29 502,-722.29 498.5,-732.29 505.5,-732.29"/>
</g>
<!-- 2808846783888ReLU -->
<g id="node35" class="node">
<title>2808846783888ReLU</title>
<ellipse fill="none" stroke="black" cx="502" cy="-883.5" rx="33.1" ry="18"/>
<text text-anchor="middle" x="502" y="-878.08" font-family="Times New Roman,serif" font-size="14.00">ReLU</text>
</g>
<!-- 2808846783888ReLU&#45;&gt;2808846783888 -->
<g id="edge33" class="edge">
<title>2808846783888ReLU&#45;&gt;2808846783888</title>
<path fill="none" stroke="black" d="M502,-865.09C502,-857.74 502,-848.81 502,-839.81"/>
<polygon fill="black" stroke="black" points="505.5,-839.89 502,-829.89 498.5,-839.89 505.5,-839.89"/>
</g>
<!-- 2808846787472 -->
<g id="node36" class="node">
<title>2808846787472</title>
<polygon fill="none" stroke="black" points="422.75,-938 422.75,-1009.25 581.25,-1009.25 581.25,-938 422.75,-938"/>
<text text-anchor="middle" x="502" y="-991.95" font-family="Times New Roman,serif" font-size="14.00">b+w0*x0+w1*x1+w2*x2</text>
<polyline fill="none" stroke="black" points="422.75,-985.5 581.25,-985.5"/>
<text text-anchor="middle" x="502" y="-968.2" font-family="Times New Roman,serif" font-size="14.00">data 0.3959</text>
<polyline fill="none" stroke="black" points="422.75,-961.75 581.25,-961.75"/>
<text text-anchor="middle" x="502" y="-944.45" font-family="Times New Roman,serif" font-size="14.00">grad 0.0000</text>
</g>
<!-- 2808846787472&#45;&gt;2808846783888ReLU -->
<g id="edge36" class="edge">
<title>2808846787472&#45;&gt;2808846783888ReLU</title>
<path fill="none" stroke="black" d="M502,-938.05C502,-929.53 502,-920.51 502,-912.35"/>
<polygon fill="black" stroke="black" points="505.5,-912.54 502,-902.54 498.5,-912.54 505.5,-912.54"/>
</g>
<!-- 2808846787472+ -->
<g id="node37" class="node">
<title>2808846787472+</title>
<ellipse fill="none" stroke="black" cx="502" cy="-1063.75" rx="27" ry="18"/>
<text text-anchor="middle" x="502" y="-1058.33" font-family="Times New Roman,serif" font-size="14.00">+</text>
</g>
<!-- 2808846787472+&#45;&gt;2808846787472 -->
<g id="edge35" class="edge">
<title>2808846787472+&#45;&gt;2808846787472</title>
<path fill="none" stroke="black" d="M502,-1045.34C502,-1037.99 502,-1029.06 502,-1020.06"/>
<polygon fill="black" stroke="black" points="505.5,-1020.14 502,-1010.14 498.5,-1020.14 505.5,-1020.14"/>
</g>
<!-- 2808846787216 -->
<g id="node38" class="node">
<title>2808846787216</title>
<polygon fill="none" stroke="black" points="444.25,-1118.25 444.25,-1189.5 557.75,-1189.5 557.75,-1118.25 444.25,-1118.25"/>
<text text-anchor="middle" x="501" y="-1172.2" font-family="Times New Roman,serif" font-size="14.00">b+w0*x0+w1*x1</text>
<polyline fill="none" stroke="black" points="444.25,-1165.75 557.75,-1165.75"/>
<text text-anchor="middle" x="501" y="-1148.45" font-family="Times New Roman,serif" font-size="14.00">data 0.4133</text>
<polyline fill="none" stroke="black" points="444.25,-1142 557.75,-1142"/>
<text text-anchor="middle" x="501" y="-1124.7" font-family="Times New Roman,serif" font-size="14.00">grad 0.0000</text>
</g>
<!-- 2808846787216&#45;&gt;2808846787472+ -->
<g id="edge38" class="edge">
<title>2808846787216&#45;&gt;2808846787472+</title>
<path fill="none" stroke="black" d="M501.39,-1118.3C501.49,-1109.78 501.59,-1100.76 501.68,-1092.6"/>
<polygon fill="black" stroke="black" points="505.19,-1092.82 501.81,-1082.79 498.19,-1092.75 505.19,-1092.82"/>
</g>
<!-- 2808846787216+ -->
<g id="node39" class="node">
<title>2808846787216+</title>
<ellipse fill="none" stroke="black" cx="501" cy="-1244" rx="27" ry="18"/>
<text text-anchor="middle" x="501" y="-1238.58" font-family="Times New Roman,serif" font-size="14.00">+</text>
</g>
<!-- 2808846787216+&#45;&gt;2808846787216 -->
<g id="edge37" class="edge">
<title>2808846787216+&#45;&gt;2808846787216</title>
<path fill="none" stroke="black" d="M501,-1225.59C501,-1218.24 501,-1209.31 501,-1200.31"/>
<polygon fill="black" stroke="black" points="504.5,-1200.39 501,-1190.39 497.5,-1200.39 504.5,-1200.39"/>
</g>
<!-- 2808846786960 -->
<g id="node40" class="node">
<title>2808846786960</title>
<polygon fill="none" stroke="black" points="558,-1298.5 558,-1369.75 640,-1369.75 640,-1298.5 558,-1298.5"/>
<text text-anchor="middle" x="599" y="-1352.45" font-family="Times New Roman,serif" font-size="14.00">b+w0*x0</text>
<polyline fill="none" stroke="black" points="558,-1346 640,-1346"/>
<text text-anchor="middle" x="599" y="-1328.7" font-family="Times New Roman,serif" font-size="14.00">data 0.2879</text>
<polyline fill="none" stroke="black" points="558,-1322.25 640,-1322.25"/>
<text text-anchor="middle" x="599" y="-1304.95" font-family="Times New Roman,serif" font-size="14.00">grad 0.0000</text>
</g>
<!-- 2808846786960&#45;&gt;2808846787216+ -->
<g id="edge40" class="edge">
<title>2808846786960&#45;&gt;2808846787216+</title>
<path fill="none" stroke="black" d="M560.55,-1298.55C548.45,-1287.67 535.45,-1275.97 524.69,-1266.3"/>
<polygon fill="black" stroke="black" points="527.38,-1264.11 517.6,-1260.03 522.7,-1269.32 527.38,-1264.11"/>
</g>
<!-- 2808846786960+ -->
<g id="node41" class="node">
<title>2808846786960+</title>
<ellipse fill="none" stroke="black" cx="599" cy="-1424.25" rx="27" ry="18"/>
<text text-anchor="middle" x="599" y="-1418.83" font-family="Times New Roman,serif" font-size="14.00">+</text>
</g>
<!-- 2808846786960+&#45;&gt;2808846786960 -->
<g id="edge39" class="edge">
<title>2808846786960+&#45;&gt;2808846786960</title>
<path fill="none" stroke="black" d="M599,-1405.84C599,-1398.49 599,-1389.56 599,-1380.56"/>
<polygon fill="black" stroke="black" points="602.5,-1380.64 599,-1370.64 595.5,-1380.64 602.5,-1380.64"/>
</g>
<!-- 2808822136336 -->
<g id="node42" class="node">
<title>2808822136336</title>
<polygon fill="none" stroke="black" points="607,-1478.75 607,-1550 689,-1550 689,-1478.75 607,-1478.75"/>
<text text-anchor="middle" x="648" y="-1532.7" font-family="Times New Roman,serif" font-size="14.00">b</text>
<polyline fill="none" stroke="black" points="607,-1526.25 689,-1526.25"/>
<text text-anchor="middle" x="648" y="-1508.95" font-family="Times New Roman,serif" font-size="14.00">data 0.0000</text>
<polyline fill="none" stroke="black" points="607,-1502.5 689,-1502.5"/>
<text text-anchor="middle" x="648" y="-1485.2" font-family="Times New Roman,serif" font-size="14.00">grad 0.0000</text>
</g>
<!-- 2808822136336&#45;&gt;2808846786960+ -->
<g id="edge41" class="edge">
<title>2808822136336&#45;&gt;2808846786960+</title>
<path fill="none" stroke="black" d="M628.77,-1478.8C623.61,-1469.51 618.12,-1459.63 613.27,-1450.92"/>
<polygon fill="black" stroke="black" points="615.86,-1449.38 607.95,-1442.34 609.75,-1452.78 615.86,-1449.38"/>
</g>
<!-- 2808846786640 -->
<g id="node43" class="node">
<title>2808846786640</title>
<polygon fill="none" stroke="black" points="507,-1478.75 507,-1550 589,-1550 589,-1478.75 507,-1478.75"/>
<text text-anchor="middle" x="548" y="-1532.7" font-family="Times New Roman,serif" font-size="14.00">w0*x0</text>
<polyline fill="none" stroke="black" points="507,-1526.25 589,-1526.25"/>
<text text-anchor="middle" x="548" y="-1508.95" font-family="Times New Roman,serif" font-size="14.00">data 0.2879</text>
<polyline fill="none" stroke="black" points="507,-1502.5 589,-1502.5"/>
<text text-anchor="middle" x="548" y="-1485.2" font-family="Times New Roman,serif" font-size="14.00">grad 0.0000</text>
</g>
<!-- 2808846786640&#45;&gt;2808846786960+ -->
<g id="edge43" class="edge">
<title>2808846786640&#45;&gt;2808846786960+</title>
<path fill="none" stroke="black" d="M568.01,-1478.8C573.44,-1469.41 579.23,-1459.42 584.31,-1450.64"/>
<polygon fill="black" stroke="black" points="587.71,-1452.75 589.69,-1442.34 581.65,-1449.24 587.71,-1452.75"/>
</g>
<!-- 2808846786640*&#45;&gt;2808846786640 -->
<g id="edge42" class="edge">
<title>2808846786640*&#45;&gt;2808846786640</title>
<path fill="none" stroke="black" d="M527.01,-1586.51C529.24,-1578.95 531.99,-1569.66 534.74,-1560.31"/>
<polygon fill="black" stroke="black" points="538.36,-1561.41 537.84,-1550.83 531.65,-1559.43 538.36,-1561.41"/>
</g>
<!-- 2808263963216 -->
<g id="node45" class="node">
<title>2808263963216</title>
<polygon fill="none" stroke="black" points="481,-1659 481,-1730.25 563,-1730.25 563,-1659 481,-1659"/>
<text text-anchor="middle" x="522" y="-1712.95" font-family="Times New Roman,serif" font-size="14.00">w0</text>
<polyline fill="none" stroke="black" points="481,-1706.5 563,-1706.5"/>
<text text-anchor="middle" x="522" y="-1689.2" font-family="Times New Roman,serif" font-size="14.00">data 0.3625</text>
<polyline fill="none" stroke="black" points="481,-1682.75 563,-1682.75"/>
<text text-anchor="middle" x="522" y="-1665.45" font-family="Times New Roman,serif" font-size="14.00">grad 0.0000</text>
</g>
<!-- 2808263963216&#45;&gt;2808846786640* -->
<g id="edge45" class="edge">
<title>2808263963216&#45;&gt;2808846786640*</title>
<path fill="none" stroke="black" d="M522,-1659.05C522,-1650.53 522,-1641.51 522,-1633.35"/>
<polygon fill="black" stroke="black" points="525.5,-1633.54 522,-1623.54 518.5,-1633.54 525.5,-1633.54"/>
</g>
<!-- 2808846787088 -->
<g id="node46" class="node">
<title>2808846787088</title>
<polygon fill="none" stroke="black" points="458,-1298.5 458,-1369.75 540,-1369.75 540,-1298.5 458,-1298.5"/>
<text text-anchor="middle" x="499" y="-1352.45" font-family="Times New Roman,serif" font-size="14.00">w1*x1</text>
<polyline fill="none" stroke="black" points="458,-1346 540,-1346"/>
<text text-anchor="middle" x="499" y="-1328.7" font-family="Times New Roman,serif" font-size="14.00">data 0.1254</text>
<polyline fill="none" stroke="black" points="458,-1322.25 540,-1322.25"/>
<text text-anchor="middle" x="499" y="-1304.95" font-family="Times New Roman,serif" font-size="14.00">grad 0.0000</text>
</g>
<!-- 2808846787088&#45;&gt;2808846787216+ -->
<g id="edge47" class="edge">
<title>2808846787088&#45;&gt;2808846787216+</title>
<path fill="none" stroke="black" d="M499.78,-1298.55C499.98,-1290.03 500.18,-1281.01 500.37,-1272.85"/>
<polygon fill="black" stroke="black" points="503.89,-1273.11 500.61,-1263.04 496.89,-1272.95 503.89,-1273.11"/>
</g>
<!-- 2808846787088*&#45;&gt;2808846787088 -->
<g id="edge46" class="edge">
<title>2808846787088*&#45;&gt;2808846787088</title>
<path fill="none" stroke="black" d="M455.72,-1407.09C460.57,-1399.02 466.7,-1388.84 472.8,-1378.69"/>
<polygon fill="black" stroke="black" points="476.21,-1380.81 478.36,-1370.44 470.21,-1377.21 476.21,-1380.81"/>
</g>
<!-- 2808268323344 -->
<g id="node48" class="node">
<title>2808268323344</title>
<polygon fill="none" stroke="black" points="403.5,-1478.75 403.5,-1550 488.5,-1550 488.5,-1478.75 403.5,-1478.75"/>
<text text-anchor="middle" x="446" y="-1532.7" font-family="Times New Roman,serif" font-size="14.00">w1</text>
<polyline fill="none" stroke="black" points="403.5,-1526.25 488.5,-1526.25"/>
<text text-anchor="middle" x="446" y="-1508.95" font-family="Times New Roman,serif" font-size="14.00">data &#45;0.9678</text>
<polyline fill="none" stroke="black" points="403.5,-1502.5 488.5,-1502.5"/>
<text text-anchor="middle" x="446" y="-1485.2" font-family="Times New Roman,serif" font-size="14.00">grad 0.0000</text>
</g>
<!-- 2808268323344&#45;&gt;2808846787088* -->
<g id="edge49" class="edge">
<title>2808268323344&#45;&gt;2808846787088*</title>
<path fill="none" stroke="black" d="M446,-1478.8C446,-1470.28 446,-1461.26 446,-1453.1"/>
<polygon fill="black" stroke="black" points="449.5,-1453.29 446,-1443.29 442.5,-1453.29 449.5,-1453.29"/>
</g>
<!-- 2808846787344 -->
<g id="node49" class="node">
<title>2808846787344</title>
<polygon fill="none" stroke="black" points="575.5,-1118.25 575.5,-1189.5 660.5,-1189.5 660.5,-1118.25 575.5,-1118.25"/>
<text text-anchor="middle" x="618" y="-1172.2" font-family="Times New Roman,serif" font-size="14.00">w2*x2</text>
<polyline fill="none" stroke="black" points="575.5,-1165.75 660.5,-1165.75"/>
<text text-anchor="middle" x="618" y="-1148.45" font-family="Times New Roman,serif" font-size="14.00">data &#45;0.0174</text>
<polyline fill="none" stroke="black" points="575.5,-1142 660.5,-1142"/>
<text text-anchor="middle" x="618" y="-1124.7" font-family="Times New Roman,serif" font-size="14.00">grad 0.0000</text>
</g>
<!-- 2808846787344&#45;&gt;2808846787472+ -->
<g id="edge51" class="edge">
<title>2808846787344&#45;&gt;2808846787472+</title>
<path fill="none" stroke="black" d="M575.79,-1120.81C559.75,-1108.62 541.95,-1095.1 527.86,-1084.39"/>
<polygon fill="black" stroke="black" points="530.27,-1081.07 520.19,-1077.81 526.03,-1086.64 530.27,-1081.07"/>
</g>
<!-- 2808846787344*&#45;&gt;2808846787344 -->
<g id="edge50" class="edge">
<title>2808846787344*&#45;&gt;2808846787344</title>
<path fill="none" stroke="black" d="M618,-1225.59C618,-1218.24 618,-1209.31 618,-1200.31"/>
<polygon fill="black" stroke="black" points="621.5,-1200.39 618,-1190.39 614.5,-1200.39 621.5,-1200.39"/>
</g>
<!-- 2808822136208 -->
<g id="node51" class="node">
<title>2808822136208</title>
<polygon fill="none" stroke="black" points="658,-1298.5 658,-1369.75 740,-1369.75 740,-1298.5 658,-1298.5"/>
<text text-anchor="middle" x="699" y="-1352.45" font-family="Times New Roman,serif" font-size="14.00">w2</text>
<polyline fill="none" stroke="black" points="658,-1346 740,-1346"/>
<text text-anchor="middle" x="699" y="-1328.7" font-family="Times New Roman,serif" font-size="14.00">data 0.0322</text>
<polyline fill="none" stroke="black" points="658,-1322.25 740,-1322.25"/>
<text text-anchor="middle" x="699" y="-1304.95" font-family="Times New Roman,serif" font-size="14.00">grad 0.0000</text>
</g>
<!-- 2808822136208&#45;&gt;2808846787344* -->
<g id="edge52" class="edge">
<title>2808822136208&#45;&gt;2808846787344*</title>
<path fill="none" stroke="black" d="M667.22,-1298.55C657.72,-1288.21 647.54,-1277.14 638.93,-1267.77"/>
<polygon fill="black" stroke="black" points="641.86,-1265.7 632.51,-1260.7 636.71,-1270.43 641.86,-1265.7"/>
</g>
<!-- 2808846783376 -->
<g id="node52" class="node">
<title>2808846783376</title>
<polygon fill="none" stroke="black" points="561.5,-757.75 561.5,-829 646.5,-829 646.5,-757.75 561.5,-757.75"/>
<text text-anchor="middle" x="604" y="-811.7" font-family="Times New Roman,serif" font-size="14.00">w1</text>
<polyline fill="none" stroke="black" points="561.5,-805.25 646.5,-805.25"/>
<text text-anchor="middle" x="604" y="-787.95" font-family="Times New Roman,serif" font-size="14.00">data &#45;0.8788</text>
<polyline fill="none" stroke="black" points="561.5,-781.5 646.5,-781.5"/>
<text text-anchor="middle" x="604" y="-764.2" font-family="Times New Roman,serif" font-size="14.00">grad 0.0000</text>
</g>
<!-- 2808846783376&#45;&gt;2808846788176* -->
<g id="edge54" class="edge">
<title>2808846783376&#45;&gt;2808846788176*</title>
<path fill="none" stroke="black" d="M563.98,-757.8C551.17,-746.73 537.39,-734.83 526.09,-725.06"/>
<polygon fill="black" stroke="black" points="528.83,-721.95 518.98,-718.06 524.26,-727.24 528.83,-721.95"/>
</g>
</g>
</svg>
