<?xml version="1.0" encoding="UTF-8" standalone="no"?>
<!DOCTYPE svg PUBLIC "-//W3C//DTD SVG 1.1//EN"
 "http://www.w3.org/Graphics/SVG/1.1/DTD/svg11.dtd">
<!-- Generated by graphviz version 2.43.0 (0)
 -->
<!-- Title: %3 Pages: 1 -->
<svg width="746pt" height="968pt"
 viewBox="0.00 0.00 746.00 968.00" xmlns="http://www.w3.org/2000/svg" xmlns:xlink="http://www.w3.org/1999/xlink">
<g id="graph0" class="graph" transform="scale(1 1) rotate(0) translate(4 964)">
<title>%3</title>
<polygon fill="white" stroke="transparent" points="-4,4 -4,-964 742,-964 742,4 -4,4"/>
<!-- 140468379426320 -->
<g id="node1" class="node">
<title>140468379426320</title>
<polygon fill="none" stroke="black" points="207.5,-0.5 207.5,-69.5 327.5,-69.5 327.5,-0.5 207.5,-0.5"/>
<text text-anchor="middle" x="267.5" y="-54.3" font-family="Times,serif" font-size="14.00">Relu</text>
<polyline fill="none" stroke="black" points="207.5,-46.5 327.5,-46.5 "/>
<text text-anchor="middle" x="267.5" y="-31.3" font-family="Times,serif" font-size="14.00">data 108.8659</text>
<polyline fill="none" stroke="black" points="207.5,-23.5 327.5,-23.5 "/>
<text text-anchor="middle" x="267.5" y="-8.3" font-family="Times,serif" font-size="14.00">grad &#45;4.2682</text>
</g>
<!-- 140468379426320ReLU -->
<g id="node2" class="node">
<title>140468379426320ReLU</title>
<ellipse fill="none" stroke="black" cx="267.5" cy="-124" rx="36.29" ry="18"/>
<text text-anchor="middle" x="267.5" y="-120.3" font-family="Times,serif" font-size="14.00">ReLU</text>
</g>
<!-- 140468379426320ReLU&#45;&gt;140468379426320 -->
<g id="edge1" class="edge">
<title>140468379426320ReLU&#45;&gt;140468379426320</title>
<path fill="none" stroke="black" d="M267.5,-105.81C267.5,-98.33 267.5,-89.18 267.5,-80"/>
<polygon fill="black" stroke="black" points="271,-79.71 267.5,-69.71 264,-79.71 271,-79.71"/>
</g>
<!-- 140468379432512 -->
<g id="node3" class="node">
<title>140468379432512</title>
<polygon fill="none" stroke="black" points="169,-178.5 169,-247.5 366,-247.5 366,-178.5 169,-178.5"/>
<text text-anchor="middle" x="267.5" y="-232.3" font-family="Times,serif" font-size="14.00">b+w0*x0+w1*x1+w2*x2</text>
<polyline fill="none" stroke="black" points="169,-224.5 366,-224.5 "/>
<text text-anchor="middle" x="267.5" y="-209.3" font-family="Times,serif" font-size="14.00">data 108.8659</text>
<polyline fill="none" stroke="black" points="169,-201.5 366,-201.5 "/>
<text text-anchor="middle" x="267.5" y="-186.3" font-family="Times,serif" font-size="14.00">grad &#45;4.2682</text>
</g>
<!-- 140468379432512&#45;&gt;140468379426320ReLU -->
<g id="edge3" class="edge">
<title>140468379432512&#45;&gt;140468379426320ReLU</title>
<path fill="none" stroke="black" d="M267.5,-178.11C267.5,-169.62 267.5,-160.61 267.5,-152.48"/>
<polygon fill="black" stroke="black" points="271,-152.4 267.5,-142.4 264,-152.4 271,-152.4"/>
</g>
<!-- 140468379432512+ -->
<g id="node4" class="node">
<title>140468379432512+</title>
<ellipse fill="none" stroke="black" cx="267.5" cy="-302" rx="27" ry="18"/>
<text text-anchor="middle" x="267.5" y="-298.3" font-family="Times,serif" font-size="14.00">+</text>
</g>
<!-- 140468379432512+&#45;&gt;140468379432512 -->
<g id="edge2" class="edge">
<title>140468379432512+&#45;&gt;140468379432512</title>
<path fill="none" stroke="black" d="M267.5,-283.81C267.5,-276.33 267.5,-267.18 267.5,-258"/>
<polygon fill="black" stroke="black" points="271,-257.71 267.5,-247.71 264,-257.71 271,-257.71"/>
</g>
<!-- 140468379431600 -->
<g id="node5" class="node">
<title>140468379431600</title>
<polygon fill="none" stroke="black" points="140,-356.5 140,-425.5 251,-425.5 251,-356.5 140,-356.5"/>
<text text-anchor="middle" x="195.5" y="-410.3" font-family="Times,serif" font-size="14.00">w2*x2</text>
<polyline fill="none" stroke="black" points="140,-402.5 251,-402.5 "/>
<text text-anchor="middle" x="195.5" y="-387.3" font-family="Times,serif" font-size="14.00">data 20.7590</text>
<polyline fill="none" stroke="black" points="140,-379.5 251,-379.5 "/>
<text text-anchor="middle" x="195.5" y="-364.3" font-family="Times,serif" font-size="14.00">grad &#45;4.2682</text>
</g>
<!-- 140468379431600&#45;&gt;140468379432512+ -->
<g id="edge5" class="edge">
<title>140468379431600&#45;&gt;140468379432512+</title>
<path fill="none" stroke="black" d="M223.54,-356.11C231.89,-346.03 240.83,-335.23 248.46,-326.01"/>
<polygon fill="black" stroke="black" points="251.36,-327.99 255.04,-318.06 245.97,-323.53 251.36,-327.99"/>
</g>
<!-- 140468379431600* -->
<g id="node6" class="node">
<title>140468379431600*</title>
<ellipse fill="none" stroke="black" cx="195.5" cy="-480" rx="27" ry="18"/>
<text text-anchor="middle" x="195.5" y="-476.3" font-family="Times,serif" font-size="14.00">*</text>
</g>
<!-- 140468379431600*&#45;&gt;140468379431600 -->
<g id="edge4" class="edge">
<title>140468379431600*&#45;&gt;140468379431600</title>
<path fill="none" stroke="black" d="M195.5,-461.81C195.5,-454.33 195.5,-445.18 195.5,-436"/>
<polygon fill="black" stroke="black" points="199,-435.71 195.5,-425.71 192,-435.71 199,-435.71"/>
</g>
<!-- 140469263196816 -->
<g id="node7" class="node">
<title>140469263196816</title>
<polygon fill="none" stroke="black" points="0,-534.5 0,-603.5 117,-603.5 117,-534.5 0,-534.5"/>
<text text-anchor="middle" x="58.5" y="-588.3" font-family="Times,serif" font-size="14.00">w2</text>
<polyline fill="none" stroke="black" points="0,-580.5 117,-580.5 "/>
<text text-anchor="middle" x="58.5" y="-565.3" font-family="Times,serif" font-size="14.00">data 3.4854</text>
<polyline fill="none" stroke="black" points="0,-557.5 117,-557.5 "/>
<text text-anchor="middle" x="58.5" y="-542.3" font-family="Times,serif" font-size="14.00">grad &#45;25.6089</text>
</g>
<!-- 140469263196816&#45;&gt;140468379431600* -->
<g id="edge6" class="edge">
<title>140469263196816&#45;&gt;140468379431600*</title>
<path fill="none" stroke="black" d="M111.47,-534.36C130.78,-522.1 151.83,-508.73 168.04,-498.44"/>
<polygon fill="black" stroke="black" points="169.93,-501.38 176.5,-493.07 166.18,-495.47 169.93,-501.38"/>
</g>
<!-- 140468379344736 -->
<g id="node8" class="node">
<title>140468379344736</title>
<polygon fill="none" stroke="black" points="135.5,-534.5 135.5,-603.5 261.5,-603.5 261.5,-534.5 135.5,-534.5"/>
<text text-anchor="middle" x="198.5" y="-588.3" font-family="Times,serif" font-size="14.00">x2</text>
<polyline fill="none" stroke="black" points="135.5,-580.5 261.5,-580.5 "/>
<text text-anchor="middle" x="198.5" y="-565.3" font-family="Times,serif" font-size="14.00">data 6.0000</text>
<polyline fill="none" stroke="black" points="135.5,-557.5 261.5,-557.5 "/>
<text text-anchor="middle" x="198.5" y="-542.3" font-family="Times,serif" font-size="14.00">grad &#45;259.9310</text>
</g>
<!-- 140468379344736&#45;&gt;140468379431600* -->
<g id="edge7" class="edge">
<title>140468379344736&#45;&gt;140468379431600*</title>
<path fill="none" stroke="black" d="M197.33,-534.11C197.04,-525.62 196.73,-516.61 196.45,-508.48"/>
<polygon fill="black" stroke="black" points="199.94,-508.27 196.1,-498.4 192.95,-508.51 199.94,-508.27"/>
</g>
<!-- 140468379419456 -->
<g id="node9" class="node">
<title>140468379419456</title>
<polygon fill="none" stroke="black" points="269.5,-356.5 269.5,-425.5 409.5,-425.5 409.5,-356.5 269.5,-356.5"/>
<text text-anchor="middle" x="339.5" y="-410.3" font-family="Times,serif" font-size="14.00">b+w0*x0+w1*x1</text>
<polyline fill="none" stroke="black" points="269.5,-402.5 409.5,-402.5 "/>
<text text-anchor="middle" x="339.5" y="-387.3" font-family="Times,serif" font-size="14.00">data 88.1069</text>
<polyline fill="none" stroke="black" points="269.5,-379.5 409.5,-379.5 "/>
<text text-anchor="middle" x="339.5" y="-364.3" font-family="Times,serif" font-size="14.00">grad &#45;4.2682</text>
</g>
<!-- 140468379419456&#45;&gt;140468379432512+ -->
<g id="edge9" class="edge">
<title>140468379419456&#45;&gt;140468379432512+</title>
<path fill="none" stroke="black" d="M311.46,-356.11C303.11,-346.03 294.17,-335.23 286.54,-326.01"/>
<polygon fill="black" stroke="black" points="289.03,-323.53 279.96,-318.06 283.64,-327.99 289.03,-323.53"/>
</g>
<!-- 140468379419456+ -->
<g id="node10" class="node">
<title>140468379419456+</title>
<ellipse fill="none" stroke="black" cx="339.5" cy="-480" rx="27" ry="18"/>
<text text-anchor="middle" x="339.5" y="-476.3" font-family="Times,serif" font-size="14.00">+</text>
</g>
<!-- 140468379419456+&#45;&gt;140468379419456 -->
<g id="edge8" class="edge">
<title>140468379419456+&#45;&gt;140468379419456</title>
<path fill="none" stroke="black" d="M339.5,-461.81C339.5,-454.33 339.5,-445.18 339.5,-436"/>
<polygon fill="black" stroke="black" points="343,-435.71 339.5,-425.71 336,-435.71 343,-435.71"/>
</g>
<!-- 140468379424448 -->
<g id="node11" class="node">
<title>140468379424448</title>
<polygon fill="none" stroke="black" points="283.5,-534.5 283.5,-603.5 391.5,-603.5 391.5,-534.5 283.5,-534.5"/>
<text text-anchor="middle" x="337.5" y="-588.3" font-family="Times,serif" font-size="14.00">w1*x1</text>
<polyline fill="none" stroke="black" points="283.5,-580.5 391.5,-580.5 "/>
<text text-anchor="middle" x="337.5" y="-565.3" font-family="Times,serif" font-size="14.00">data 4.1061</text>
<polyline fill="none" stroke="black" points="283.5,-557.5 391.5,-557.5 "/>
<text text-anchor="middle" x="337.5" y="-542.3" font-family="Times,serif" font-size="14.00">grad &#45;4.2682</text>
</g>
<!-- 140468379424448&#45;&gt;140468379419456+ -->
<g id="edge11" class="edge">
<title>140468379424448&#45;&gt;140468379419456+</title>
<path fill="none" stroke="black" d="M338.28,-534.11C338.47,-525.62 338.68,-516.61 338.87,-508.48"/>
<polygon fill="black" stroke="black" points="342.37,-508.47 339.1,-498.4 335.37,-508.31 342.37,-508.47"/>
</g>
<!-- 140468379424448* -->
<g id="node12" class="node">
<title>140468379424448*</title>
<ellipse fill="none" stroke="black" cx="335.5" cy="-658" rx="27" ry="18"/>
<text text-anchor="middle" x="335.5" y="-654.3" font-family="Times,serif" font-size="14.00">*</text>
</g>
<!-- 140468379424448*&#45;&gt;140468379424448 -->
<g id="edge10" class="edge">
<title>140468379424448*&#45;&gt;140468379424448</title>
<path fill="none" stroke="black" d="M335.9,-639.81C336.07,-632.33 336.28,-623.18 336.49,-614"/>
<polygon fill="black" stroke="black" points="339.99,-613.79 336.72,-603.71 333,-613.63 339.99,-613.79"/>
</g>
<!-- 140469266367776 -->
<g id="node13" class="node">
<title>140469266367776</title>
<polygon fill="none" stroke="black" points="137,-712.5 137,-781.5 254,-781.5 254,-712.5 137,-712.5"/>
<text text-anchor="middle" x="195.5" y="-766.3" font-family="Times,serif" font-size="14.00">w1</text>
<polyline fill="none" stroke="black" points="137,-758.5 254,-758.5 "/>
<text text-anchor="middle" x="195.5" y="-743.3" font-family="Times,serif" font-size="14.00">data 1.3815</text>
<polyline fill="none" stroke="black" points="137,-735.5 254,-735.5 "/>
<text text-anchor="middle" x="195.5" y="-720.3" font-family="Times,serif" font-size="14.00">grad &#45;12.8045</text>
</g>
<!-- 140469266367776&#45;&gt;140468379424448* -->
<g id="edge12" class="edge">
<title>140469266367776&#45;&gt;140468379424448*</title>
<path fill="none" stroke="black" d="M249.63,-712.36C269.49,-700.02 291.16,-686.55 307.76,-676.24"/>
<polygon fill="black" stroke="black" points="309.77,-679.11 316.42,-670.86 306.08,-673.16 309.77,-679.11"/>
</g>
<!-- 140468379344880 -->
<g id="node14" class="node">
<title>140468379344880</title>
<polygon fill="none" stroke="black" points="272.5,-712.5 272.5,-781.5 398.5,-781.5 398.5,-712.5 272.5,-712.5"/>
<text text-anchor="middle" x="335.5" y="-766.3" font-family="Times,serif" font-size="14.00">x1</text>
<polyline fill="none" stroke="black" points="272.5,-758.5 398.5,-758.5 "/>
<text text-anchor="middle" x="335.5" y="-743.3" font-family="Times,serif" font-size="14.00">data 3.0000</text>
<polyline fill="none" stroke="black" points="272.5,-735.5 398.5,-735.5 "/>
<text text-anchor="middle" x="335.5" y="-720.3" font-family="Times,serif" font-size="14.00">grad &#45;156.9494</text>
</g>
<!-- 140468379344880&#45;&gt;140468379424448* -->
<g id="edge13" class="edge">
<title>140468379344880&#45;&gt;140468379424448*</title>
<path fill="none" stroke="black" d="M335.5,-712.11C335.5,-703.62 335.5,-694.61 335.5,-686.48"/>
<polygon fill="black" stroke="black" points="339,-686.4 335.5,-676.4 332,-686.4 339,-686.4"/>
</g>
<!-- 140468379430736 -->
<g id="node15" class="node">
<title>140468379430736</title>
<polygon fill="none" stroke="black" points="412,-534.5 412,-603.5 523,-603.5 523,-534.5 412,-534.5"/>
<text text-anchor="middle" x="467.5" y="-588.3" font-family="Times,serif" font-size="14.00">b+w0*x0</text>
<polyline fill="none" stroke="black" points="412,-580.5 523,-580.5 "/>
<text text-anchor="middle" x="467.5" y="-565.3" font-family="Times,serif" font-size="14.00">data 84.0009</text>
<polyline fill="none" stroke="black" points="412,-557.5 523,-557.5 "/>
<text text-anchor="middle" x="467.5" y="-542.3" font-family="Times,serif" font-size="14.00">grad &#45;4.2682</text>
</g>
<!-- 140468379430736&#45;&gt;140468379419456+ -->
<g id="edge15" class="edge">
<title>140468379430736&#45;&gt;140468379419456+</title>
<path fill="none" stroke="black" d="M418.01,-534.36C400.37,-522.37 381.17,-509.33 366.18,-499.13"/>
<polygon fill="black" stroke="black" points="368.12,-496.22 357.88,-493.49 364.18,-502.01 368.12,-496.22"/>
</g>
<!-- 140468379430736+ -->
<g id="node16" class="node">
<title>140468379430736+</title>
<ellipse fill="none" stroke="black" cx="470.5" cy="-658" rx="27" ry="18"/>
<text text-anchor="middle" x="470.5" y="-654.3" font-family="Times,serif" font-size="14.00">+</text>
</g>
<!-- 140468379430736+&#45;&gt;140468379430736 -->
<g id="edge14" class="edge">
<title>140468379430736+&#45;&gt;140468379430736</title>
<path fill="none" stroke="black" d="M469.91,-639.81C469.65,-632.33 469.33,-623.18 469.02,-614"/>
<polygon fill="black" stroke="black" points="472.51,-613.59 468.66,-603.71 465.51,-613.83 472.51,-613.59"/>
</g>
<!-- 140468387241248 -->
<g id="node17" class="node">
<title>140468387241248</title>
<polygon fill="none" stroke="black" points="416.5,-712.5 416.5,-781.5 524.5,-781.5 524.5,-712.5 416.5,-712.5"/>
<text text-anchor="middle" x="470.5" y="-766.3" font-family="Times,serif" font-size="14.00">b</text>
<polyline fill="none" stroke="black" points="416.5,-758.5 524.5,-758.5 "/>
<text text-anchor="middle" x="470.5" y="-743.3" font-family="Times,serif" font-size="14.00">data 2.1009</text>
<polyline fill="none" stroke="black" points="416.5,-735.5 524.5,-735.5 "/>
<text text-anchor="middle" x="470.5" y="-720.3" font-family="Times,serif" font-size="14.00">grad &#45;4.2682</text>
</g>
<!-- 140468387241248&#45;&gt;140468379430736+ -->
<g id="edge16" class="edge">
<title>140468387241248&#45;&gt;140468379430736+</title>
<path fill="none" stroke="black" d="M470.5,-712.11C470.5,-703.62 470.5,-694.61 470.5,-686.48"/>
<polygon fill="black" stroke="black" points="474,-686.4 470.5,-676.4 467,-686.4 474,-686.4"/>
</g>
<!-- 140468379425072 -->
<g id="node18" class="node">
<title>140468379425072</title>
<polygon fill="none" stroke="black" points="543,-712.5 543,-781.5 654,-781.5 654,-712.5 543,-712.5"/>
<text text-anchor="middle" x="598.5" y="-766.3" font-family="Times,serif" font-size="14.00">w0*x0</text>
<polyline fill="none" stroke="black" points="543,-758.5 654,-758.5 "/>
<text text-anchor="middle" x="598.5" y="-743.3" font-family="Times,serif" font-size="14.00">data 81.9043</text>
<polyline fill="none" stroke="black" points="543,-735.5 654,-735.5 "/>
<text text-anchor="middle" x="598.5" y="-720.3" font-family="Times,serif" font-size="14.00">grad &#45;4.2682</text>
</g>
<!-- 140468379425072&#45;&gt;140468379430736+ -->
<g id="edge18" class="edge">
<title>140468379425072&#45;&gt;140468379430736+</title>
<path fill="none" stroke="black" d="M549.01,-712.36C531.37,-700.37 512.17,-687.33 497.18,-677.13"/>
<polygon fill="black" stroke="black" points="499.12,-674.22 488.88,-671.49 495.18,-680.01 499.12,-674.22"/>
</g>
<!-- 140468379425072* -->
<g id="node19" class="node">
<title>140468379425072*</title>
<ellipse fill="none" stroke="black" cx="598.5" cy="-836" rx="27" ry="18"/>
<text text-anchor="middle" x="598.5" y="-832.3" font-family="Times,serif" font-size="14.00">*</text>
</g>
<!-- 140468379425072*&#45;&gt;140468379425072 -->
<g id="edge17" class="edge">
<title>140468379425072*&#45;&gt;140468379425072</title>
<path fill="none" stroke="black" d="M598.5,-817.81C598.5,-810.33 598.5,-801.18 598.5,-792"/>
<polygon fill="black" stroke="black" points="602,-791.71 598.5,-781.71 595,-791.71 602,-791.71"/>
</g>
<!-- 140469266368640 -->
<g id="node20" class="node">
<title>140469266368640</title>
<polygon fill="none" stroke="black" points="468,-890.5 468,-959.5 585,-959.5 585,-890.5 468,-890.5"/>
<text text-anchor="middle" x="526.5" y="-944.3" font-family="Times,serif" font-size="14.00">w0</text>
<polyline fill="none" stroke="black" points="468,-936.5 585,-936.5 "/>
<text text-anchor="middle" x="526.5" y="-921.3" font-family="Times,serif" font-size="14.00">data 20.4931</text>
<polyline fill="none" stroke="black" points="468,-913.5 585,-913.5 "/>
<text text-anchor="middle" x="526.5" y="-898.3" font-family="Times,serif" font-size="14.00">grad &#45;17.0726</text>
</g>
<!-- 140469266368640&#45;&gt;140468379425072* -->
<g id="edge19" class="edge">
<title>140469266368640&#45;&gt;140468379425072*</title>
<path fill="none" stroke="black" d="M554.54,-890.11C562.89,-880.03 571.83,-869.23 579.46,-860.01"/>
<polygon fill="black" stroke="black" points="582.36,-861.99 586.04,-852.06 576.97,-857.53 582.36,-861.99"/>
</g>
<!-- 140468379345360 -->
<g id="node21" class="node">
<title>140468379345360</title>
<polygon fill="none" stroke="black" points="603,-890.5 603,-959.5 738,-959.5 738,-890.5 603,-890.5"/>
<text text-anchor="middle" x="670.5" y="-944.3" font-family="Times,serif" font-size="14.00">x0</text>
<polyline fill="none" stroke="black" points="603,-936.5 738,-936.5 "/>
<text text-anchor="middle" x="670.5" y="-921.3" font-family="Times,serif" font-size="14.00">data 4.0000</text>
<polyline fill="none" stroke="black" points="603,-913.5 738,-913.5 "/>
<text text-anchor="middle" x="670.5" y="-898.3" font-family="Times,serif" font-size="14.00">grad &#45;1320.7387</text>
</g>
<!-- 140468379345360&#45;&gt;140468379425072* -->
<g id="edge20" class="edge">
<title>140468379345360&#45;&gt;140468379425072*</title>
<path fill="none" stroke="black" d="M642.46,-890.11C634.11,-880.03 625.17,-869.23 617.54,-860.01"/>
<polygon fill="black" stroke="black" points="620.03,-857.53 610.96,-852.06 614.64,-861.99 620.03,-857.53"/>
</g>
</g>
</svg>
